<?xml version="1.0" encoding="UTF-8" standalone="no"?>
<!DOCTYPE svg PUBLIC "-//W3C//DTD SVG 1.1//EN" "http://www.w3.org/Graphics/SVG/1.1/DTD/svg11.dtd">
<svg xmlns="http://www.w3.org/2000/svg" version="1.1" viewBox="0.00 0.00 540.00 720.00">
<g stroke-width="2.00" fill="none" stroke-linecap="butt">
<path stroke="#e6e6e6" vector-effect="non-scaling-stroke" d="
  M 539.26 0.00
  L 539.05 654.92
  Q 539.05 655.51 538.47 655.51
  L 5.73 650.69
  A 0.50 0.49 -36.9 0 0 5.59 651.66
  Q 6.00 651.77 6.57 651.78
  C 83.02 652.57 158.23 653.01 236.00 653.98
  C 311.89 654.92 428.57 656.04 538.48 656.65
  A 0.59 0.59 0.0 0 1 539.06 657.24
  Q 538.82 683.99 539.29 709.75
  Q 539.33 711.78 538.87 717.95
  Q 538.83 718.46 538.32 718.46
  L 442.70 718.42
  Q 442.57 718.42 442.48 718.33
  Q 442.40 718.24 442.23 718.24
  Q 221.92 718.13 1.51 718.38
  Q 1.01 718.38 1.01 717.88
  Q 0.97 359.47 1.01 1.06
  Q 1.01 0.68 0.78 0.48
  Q 0.36 0.10 0.30 0.67
  Q 0.23 1.28 0.00 1.19"
/>
<path stroke="#888888" vector-effect="non-scaling-stroke" d="
  M 256.33 294.01
  A 0.31 0.31 0.0 0 1 256.01 293.69
  L 256.18 283.56
  A 0.31 0.31 0.0 0 0 255.87 283.25
  L 251.32 283.25
  A 0.31 0.31 0.0 0 0 251.01 283.56
  L 250.98 308.51
  A 0.31 0.31 0.0 0 0 251.30 308.83
  L 255.79 308.75
  A 0.31 0.31 0.0 0 0 256.09 308.45
  L 256.26 296.50
  A 0.31 0.31 0.0 0 1 256.57 296.19
  L 266.44 296.26
  A 0.31 0.31 0.0 0 1 266.75 296.57
  L 266.75 308.58
  A 0.31 0.31 0.0 0 0 267.08 308.89
  L 271.21 308.68
  A 0.31 0.31 0.0 0 0 271.50 308.38
  L 271.50 283.65
  A 0.31 0.31 0.0 0 0 271.22 283.35
  L 267.09 282.99
  A 0.31 0.31 0.0 0 0 266.75 283.30
  L 266.75 293.66
  A 0.31 0.31 0.0 0 1 266.44 293.97
  L 256.33 294.01"
/>
<path stroke="#888888" vector-effect="non-scaling-stroke" d="
  M 285.35 295.78
  L 291.81 296.73
  Q 292.41 296.81 292.36 296.21
  L 292.21 294.45
  Q 292.15 293.75 291.45 293.75
  L 285.26 293.75
  A 0.48 0.48 0.0 0 1 284.78 293.26
  L 284.92 285.70
  Q 284.92 285.41 285.21 285.36
  Q 289.48 284.60 293.16 286.69
  A 0.39 0.39 0.0 0 0 293.72 286.21
  L 292.78 283.81
  Q 292.59 283.31 292.06 283.31
  L 280.97 283.12
  Q 280.56 283.11 280.56 283.52
  L 280.36 308.27
  Q 280.36 308.68 280.77 308.69
  L 293.43 308.90
  Q 293.92 308.91 294.29 308.59
  Q 295.82 307.28 296.24 305.26
  Q 296.36 304.71 295.86 304.98
  Q 290.96 307.65 285.30 306.58
  Q 284.93 306.51 284.93 306.13
  L 284.93 296.15
  Q 284.93 295.72 285.35 295.78"
/>
<path stroke="#888888" vector-effect="non-scaling-stroke" d="
  M 236.54 285.07
  L 242.69 286.02
  Q 243.22 286.10 243.50 286.55
  L 244.53 288.19
  A 0.62 0.61 20.7 0 0 245.64 287.69
  L 244.49 283.81
  A 0.78 0.77 -7.9 0 0 243.74 283.25
  L 223.15 283.25
  Q 222.81 283.25 222.67 283.57
  L 221.37 286.65
  A 0.50 0.50 0.0 0 0 222.08 287.27
  Q 225.85 285.05 230.30 285.29
  Q 230.88 285.32 230.87 285.90
  L 230.67 308.21
  Q 230.67 308.75 231.21 308.75
  L 235.34 308.75
  Q 235.92 308.75 235.92 308.16
  L 235.85 285.67
  Q 235.85 284.96 236.54 285.07"
/>
<path stroke="#888888" vector-effect="non-scaling-stroke" d="
  M 256.82 375.91
  Q 262.33 380.75 266.00 382.28
  C 286.98 390.99 313.43 380.71 314.76 355.39
  C 314.94 351.91 315.18 348.47 314.61 345.22
  C 310.55 321.81 284.02 313.35 264.26 322.58
  C 243.38 332.33 239.39 360.56 256.82 375.91"
/>
<path stroke="#888888" vector-effect="non-scaling-stroke" d="
  M 375.23 341.84
  Q 381.77 342.57 383.06 349.14
  C 384.80 358.08 380.15 386.54 397.57 382.58
  Q 401.11 381.78 402.38 378.74
  A 0.40 0.40 0.0 0 0 401.92 378.19
  C 400.21 378.56 398.63 379.92 397.07 379.88
  C 391.36 379.74 391.50 360.90 391.15 356.82
  C 390.42 348.33 388.79 342.44 380.46 339.99
  Q 379.93 339.83 380.30 339.42
  L 396.86 320.89
  Q 397.05 320.67 396.76 320.68
  L 391.24 320.79
  A 0.47 0.46 -69.1 0 0 390.89 320.95
  L 375.14 337.91
  Q 374.71 338.38 374.71 337.74
  L 374.77 321.34
  Q 374.77 320.72 374.15 320.72
  L 366.24 320.76
  A 0.50 0.50 0.0 0 0 365.75 321.26
  Q 365.76 348.08 365.74 374.93
  C 365.74 376.89 365.05 379.53 365.29 381.91
  Q 365.36 382.59 366.03 382.57
  L 374.22 382.32
  Q 374.75 382.30 374.75 381.78
  L 374.75 342.26
  Q 374.75 341.78 375.23 341.84"
/>
<path stroke="#888888" vector-effect="non-scaling-stroke" d="
  M 43.48 382.23
  A 0.31 0.31 0.0 0 0 43.76 381.92
  L 43.73 334.21
  A 0.31 0.31 0.0 0 1 44.28 334.02
  L 82.73 382.72
  A 0.31 0.31 0.0 0 0 83.28 382.52
  L 83.18 321.06
  A 0.31 0.31 0.0 0 0 82.87 320.75
  L 78.47 320.75
  A 0.31 0.31 0.0 0 0 78.16 321.06
  L 78.12 359.62
  A 0.31 0.31 0.0 0 1 77.57 359.81
  L 46.42 320.88
  A 0.31 0.31 0.0 0 0 46.18 320.76
  L 39.14 320.75
  A 0.31 0.31 0.0 0 0 38.83 321.06
  L 38.54 382.35
  A 0.31 0.31 0.0 0 0 38.88 382.66
  L 43.48 382.23"
/>
<path stroke="#888888" vector-effect="non-scaling-stroke" d="
  M 101.00 377.02
  L 101.00 350.74
  Q 101.00 350.11 101.63 350.08
  C 105.45 349.87 114.51 348.85 116.79 352.70
  A 0.34 0.34 0.0 0 0 117.43 352.52
  L 117.29 343.94
  A 0.34 0.33 70.3 0 0 116.75 343.68
  C 113.03 346.70 107.98 345.97 101.77 345.60
  Q 101.27 345.57 101.26 345.07
  L 101.08 325.19
  A 0.47 0.47 0.0 0 1 101.49 324.72
  Q 108.90 323.83 115.60 327.08
  A 0.49 0.38 1.1 0 1 115.76 327.21
  L 116.67 328.31
  A 0.43 0.43 0.0 0 0 117.38 327.85
  L 114.02 321.17
  Q 113.80 320.75 113.33 320.75
  L 91.75 320.75
  Q 91.25 320.75 91.25 321.25
  L 91.25 382.01
  A 0.51 0.51 0.0 0 0 91.76 382.52
  L 127.56 382.49
  Q 128.12 382.49 128.37 381.99
  L 132.80 373.07
  A 0.26 0.26 0.0 0 0 132.43 372.73
  C 123.22 378.57 112.89 378.16 101.62 377.67
  A 0.65 0.65 0.0 0 1 101.00 377.02"
/>
<path stroke="#888888" vector-effect="non-scaling-stroke" d="
  M 156.81 363.50
  A 0.42 0.42 0.0 0 1 157.57 363.50
  L 166.37 382.10
  A 0.43 0.43 0.0 0 0 167.15 382.10
  L 194.35 321.36
  Q 194.62 320.75 193.96 320.75
  L 189.36 320.75
  Q 188.82 320.75 188.60 321.24
  L 168.96 365.04
  A 0.29 0.29 0.0 0 1 168.43 365.04
  L 162.52 351.56
  Q 162.35 351.18 162.52 350.79
  L 175.05 321.53
  Q 175.25 321.05 174.75 320.93
  Q 170.25 319.87 169.12 323.20
  C 166.97 329.57 163.47 335.66 160.60 341.76
  A 1.57 1.56 -38.2 0 0 160.48 342.76
  Q 160.64 343.49 160.30 344.13
  Q 159.88 344.94 159.48 344.12
  L 148.17 321.20
  Q 147.95 320.75 147.45 320.75
  L 139.51 320.75
  Q 138.75 320.75 139.04 321.45
  Q 146.03 338.03 153.74 354.29
  C 155.29 357.57 152.40 361.42 150.21 365.11
  Q 149.94 365.56 149.79 365.06
  Q 148.70 361.62 146.49 356.97
  Q 141.96 347.46 129.93 321.20
  Q 129.73 320.75 129.23 320.75
  L 120.32 320.75
  Q 119.82 320.75 120.02 321.20
  L 147.63 382.56
  Q 147.98 383.35 148.33 382.56
  L 156.81 363.50"
/>
<path stroke="#888888" vector-effect="non-scaling-stroke" d="
  M 227.99 348.32
  L 212.11 321.22
  Q 211.84 320.75 211.30 320.75
  L 207.02 320.75
  A 0.46 0.46 0.0 0 0 206.59 321.37
  Q 207.48 323.76 208.83 325.93
  Q 215.92 337.44 222.31 349.36
  Q 223.43 351.46 223.47 353.26
  Q 223.64 363.51 223.39 381.88
  Q 223.38 382.49 223.99 382.49
  L 232.63 382.53
  Q 233.20 382.53 233.21 381.95
  Q 233.35 363.72 233.24 354.25
  C 233.20 350.21 234.50 348.67 236.31 345.49
  Q 243.14 333.48 250.31 321.63
  Q 250.73 320.93 249.92 320.89
  L 245.32 320.69
  Q 244.78 320.67 244.50 321.14
  L 228.59 348.32
  Q 228.29 348.83 227.99 348.32"
/>
<path stroke="#888888" vector-effect="non-scaling-stroke" d="
  M 340.51 346.90
  C 351.36 343.40 355.74 330.05 345.10 323.08
  C 340.08 319.79 328.73 320.46 322.89 320.91
  Q 322.39 320.95 322.36 321.45
  C 321.13 341.49 322.07 362.08 321.86 382.20
  Q 321.86 382.54 322.20 382.54
  L 330.83 382.54
  Q 331.45 382.54 331.45 381.92
  L 331.52 325.75
  A 1.16 1.16 0.0 0 1 332.75 324.59
  L 337.26 324.83
  Q 337.71 324.85 338.09 325.10
  C 346.19 330.50 344.10 343.78 335.01 346.82
  A 0.59 0.58 -52.7 0 0 335.16 347.96
  C 338.92 348.14 341.40 350.22 342.33 354.01
  C 344.30 361.99 342.39 372.38 346.63 379.19
  Q 351.02 386.25 360.45 381.24
  Q 362.41 380.19 361.48 378.16
  A 0.53 0.53 0.0 0 0 360.60 378.04
  C 357.59 381.67 354.51 379.86 353.16 376.17
  C 349.47 366.14 354.80 350.88 340.53 347.37
  A 0.25 0.24 42.9 0 1 340.51 346.90"
/>
<path stroke="#888888" vector-effect="non-scaling-stroke" d="
  M 415.09 377.04
  L 415.23 350.70
  Q 415.23 349.43 416.50 349.45
  C 420.64 349.53 427.53 348.96 430.52 351.13
  Q 431.25 351.65 431.25 350.75
  L 431.25 345.07
  A 0.51 0.51 0.0 0 0 430.47 344.63
  L 429.00 345.54
  A 1.48 1.47 29.3 0 1 428.24 345.75
  L 415.78 345.75
  Q 415.06 345.75 415.06 345.03
  L 415.07 325.76
  A 1.13 1.12 86.9 0 1 416.07 324.64
  Q 424.09 323.74 431.68 326.28
  Q 432.25 326.47 432.58 326.97
  L 433.44 328.31
  A 0.56 0.56 0.0 0 0 434.44 327.81
  L 432.02 321.12
  Q 431.90 320.79 431.55 320.79
  L 407.30 320.73
  A 1.29 1.29 0.0 0 0 406.01 322.02
  L 405.98 382.02
  Q 405.98 382.53 406.49 382.52
  Q 416.65 382.44 426.87 382.52
  C 431.41 382.55 434.16 379.56 435.40 375.51
  Q 435.57 374.96 435.04 375.17
  Q 425.65 378.95 415.48 377.49
  Q 415.09 377.43 415.09 377.04"
/>
<path stroke="#888888" vector-effect="non-scaling-stroke" d="
  M 458.97 347.52
  A 0.40 0.39 42.0 0 1 458.93 346.80
  C 466.03 343.21 470.65 338.80 468.26 330.09
  C 465.18 318.90 449.14 320.16 440.36 320.94
  A 0.20 0.20 0.0 0 0 440.18 321.14
  Q 440.34 335.83 440.23 350.56
  C 440.18 357.97 439.47 371.48 439.83 382.00
  Q 439.85 382.53 440.38 382.53
  L 448.26 382.49
  A 1.00 1.00 0.0 0 0 449.25 381.49
  L 449.25 325.81
  Q 449.25 325.28 449.76 325.10
  C 460.50 321.44 462.69 333.91 459.77 340.89
  C 458.48 343.98 455.81 345.50 452.83 346.65
  A 0.64 0.64 0.0 0 0 452.92 347.87
  Q 460.71 349.51 461.25 357.94
  C 461.69 364.80 460.87 372.58 464.37 378.74
  C 467.67 384.57 474.90 384.63 479.45 380.18
  Q 480.28 379.37 479.63 378.19
  Q 479.47 377.90 479.18 378.06
  L 474.71 380.55
  A 0.88 0.88 0.0 0 1 473.65 380.37
  C 467.91 374.08 469.54 364.35 468.13 356.44
  C 467.05 350.35 463.89 349.49 458.97 347.52"
/>
<path stroke="#87a0fa" vector-effect="non-scaling-stroke" d="
  M 328.79 698.95
  L 328.73 667.49
  Q 328.73 666.75 327.99 666.75
  L 322.45 666.75
  Q 321.79 666.75 321.78 667.42
  Q 321.66 690.05 321.79 697.19
  C 321.90 703.19 325.19 707.23 331.60 705.06
  Q 332.01 704.92 331.94 704.49
  L 331.30 700.45
  Q 331.23 700.00 330.78 699.88
  L 329.19 699.47
  A 0.54 0.53 -83.1 0 1 328.79 698.95"
/>
<path stroke="#87a0fa" vector-effect="non-scaling-stroke" d="
  M 410.46 679.88
  C 408.36 678.91 407.05 677.29 404.14 677.47
  C 394.48 678.10 391.99 688.77 393.67 696.55
  C 395.44 704.72 404.25 709.02 410.81 702.39
  A 0.62 0.62 0.0 0 1 411.86 702.74
  L 412.10 704.47
  A 0.61 0.60 86.2 0 0 412.70 705.00
  L 417.00 705.00
  Q 417.75 705.00 417.75 704.25
  L 417.75 667.25
  Q 417.75 666.75 417.25 666.75
  L 411.33 666.75
  A 0.65 0.65 0.0 0 0 410.68 667.42
  L 411.05 679.50
  Q 411.07 680.16 410.46 679.88"
/>
<path stroke="#87a0fa" vector-effect="non-scaling-stroke" d="
  M 487.97 689.70
  A 23.07 23.07 0.0 0 0 464.90 666.63
  A 23.07 23.07 0.0 0 0 441.83 689.70
  A 23.07 23.07 0.0 0 0 464.90 712.77
  A 23.07 23.07 0.0 0 0 487.97 689.70"
/>
<path stroke="#87a0fa" vector-effect="non-scaling-stroke" d="
  M 79.25 675.70
  A 0.38 0.38 0.0 0 1 79.63 675.32
  L 93.62 675.27
  A 0.38 0.38 0.0 0 0 94.00 674.89
  L 94.00 669.88
  A 0.38 0.38 0.0 0 0 93.62 669.50
  L 72.64 669.50
  A 0.38 0.38 0.0 0 0 72.26 669.88
  L 72.23 704.62
  A 0.38 0.38 0.0 0 0 72.61 705.00
  L 78.87 705.00
  A 0.38 0.38 0.0 0 0 79.25 704.62
  L 79.25 690.88
  A 0.38 0.38 0.0 0 1 79.63 690.50
  L 91.37 690.50
  A 0.38 0.38 0.0 0 0 91.75 690.12
  L 91.75 685.13
  A 0.38 0.38 0.0 0 0 91.37 684.75
  L 79.63 684.75
  A 0.38 0.38 0.0 0 1 79.25 684.37
  L 79.25 675.70"
/>
<path stroke="#87a0fa" vector-effect="non-scaling-stroke" d="
  M 186.29 669.72
  L 186.17 704.72
  A 0.25 0.25 0.0 0 0 186.42 704.97
  L 197.06 705.01
  A 16.13 15.69 0.2 0 0 213.24 689.38
  L 213.26 685.26
  A 16.13 15.69 0.2 0 0 197.18 669.51
  L 186.54 669.47
  A 0.25 0.25 0.0 0 0 186.29 669.72"
/>
<path stroke="#87a0fa" vector-effect="non-scaling-stroke" d="
  M 104.73 682.23
  L 104.42 678.84
  A 0.66 0.65 87.1 0 0 103.77 678.25
  L 99.00 678.25
  Q 98.50 678.25 98.50 678.75
  L 98.50 704.37
  Q 98.50 705.00 99.13 705.00
  L 104.96 705.00
  Q 105.49 705.00 105.49 704.47
  C 105.51 697.95 102.55 682.48 113.99 683.86
  Q 114.60 683.93 114.71 683.33
  L 115.61 678.64
  Q 115.72 678.07 115.17 677.90
  C 110.74 676.51 108.20 678.90 105.23 682.39
  Q 104.79 682.91 104.73 682.23"
/>
<path stroke="#87a0fa" vector-effect="non-scaling-stroke" d="
  M 124.99 693.50
  L 140.27 693.50
  Q 140.82 693.50 140.89 692.96
  C 143.53 670.85 115.46 674.38 117.43 692.76
  C 118.77 705.22 129.20 708.07 139.46 703.00
  A 0.68 0.67 61.7 0 0 139.74 702.05
  L 137.87 698.83
  Q 137.61 698.39 137.16 698.64
  C 132.21 701.36 125.48 700.61 124.52 694.05
  Q 124.44 693.50 124.99 693.50"
/>
<path stroke="#87a0fa" vector-effect="non-scaling-stroke" d="
  M 152.74 693.50
  L 168.01 693.50
  Q 168.52 693.50 168.59 692.99
  C 169.45 685.95 166.63 678.17 158.94 677.63
  C 146.48 676.76 141.23 692.34 148.32 700.97
  C 153.03 706.71 161.24 706.78 167.26 702.82
  Q 167.72 702.52 167.46 702.03
  L 165.73 698.80
  A 0.51 0.51 0.0 0 0 165.05 698.59
  C 159.90 701.31 153.30 700.71 152.24 694.09
  Q 152.15 693.50 152.74 693.50"
/>
<path stroke="#87a0fa" vector-effect="non-scaling-stroke" d="
  M 231.0691 705.6499
  A 14.08 12.90 89.8 0 0 243.9199 691.5250
  A 14.08 12.90 89.8 0 0 230.9709 677.4901
  A 14.08 12.90 89.8 0 0 218.1201 691.6150
  A 14.08 12.90 89.8 0 0 231.0691 705.6499"
/>
<path stroke="#87a0fa" vector-effect="non-scaling-stroke" d="
  M 297.00 680.99
  L 297.00 679.00
  A 0.75 0.75 0.0 0 0 296.25 678.25
  L 291.75 678.25
  Q 291.00 678.25 291.00 679.00
  L 291.00 704.38
  Q 291.00 705.00 291.63 705.00
  L 297.22 705.00
  Q 298.00 705.00 298.00 704.22
  L 298.00 687.27
  A 1.13 1.09 66.2 0 1 298.27 686.54
  C 301.21 683.05 307.59 681.76 307.57 688.20
  Q 307.53 696.28 307.47 704.44
  Q 307.47 705.00 308.03 705.00
  L 313.80 705.00
  Q 314.38 705.00 314.40 704.43
  C 314.65 698.79 315.73 685.10 312.31 680.54
  C 308.41 675.35 302.14 677.82 297.77 681.36
  A 0.47 0.47 0.0 0 1 297.00 680.99"
/>
<path stroke="#87a0fa" vector-effect="non-scaling-stroke" d="
  M 347.9118 705.6297
  A 14.07 12.90 90.4 0 0 360.9097 691.6501
  A 14.07 12.90 90.4 0 0 348.1082 677.4903
  A 14.07 12.90 90.4 0 0 335.1103 691.4699
  A 14.07 12.90 90.4 0 0 347.9118 705.6297"
/>
<path stroke="#87a0fa" vector-effect="non-scaling-stroke" d="
  M 381.17 702.72
  L 381.30 704.42
  Q 381.34 705.00 381.92 705.00
  L 386.48 705.00
  Q 387.08 705.00 387.12 704.40
  Q 387.65 695.76 386.84 687.19
  C 385.72 675.41 373.76 675.88 366.23 681.03
  Q 365.88 681.28 366.08 681.66
  L 368.00 685.31
  A 0.48 0.48 0.0 0 0 368.69 685.48
  C 371.71 683.48 380.05 680.88 380.03 687.37
  Q 380.03 687.98 379.42 688.02
  Q 372.58 688.53 368.83 690.83
  C 358.98 696.86 367.98 711.43 380.34 702.34
  Q 381.09 701.79 381.17 702.72"
/>
<path stroke="#87a0fa" vector-effect="non-scaling-stroke" d="
  M 266.60 686.26
  L 270.64 704.18
  Q 270.82 705.00 271.66 705.00
  L 278.57 705.00
  Q 279.15 705.00 279.29 704.44
  L 285.62 678.70
  Q 285.75 678.18 285.22 678.19
  L 279.66 678.28
  Q 279.18 678.29 279.08 678.76
  L 275.07 698.46
  A 0.21 0.20 44.4 0 1 274.67 698.46
  L 269.92 678.73
  Q 269.81 678.25 269.31 678.25
  L 264.11 678.25
  Q 263.43 678.25 263.28 678.91
  L 258.66 698.48
  A 0.15 0.15 0.0 0 1 258.36 698.48
  L 254.30 679.05
  Q 254.13 678.25 253.31 678.25
  L 247.82 678.25
  Q 247.13 678.25 247.30 678.92
  L 253.88 704.37
  A 0.84 0.84 0.0 0 0 254.69 705.00
  L 261.55 705.00
  Q 262.12 705.00 262.24 704.45
  L 266.24 686.26
  A 0.18 0.18 0.0 0 1 266.60 686.26"
/>
<path stroke="#e6e6e6" vector-effect="non-scaling-stroke" d="
  M 540.00 15.77
  L 540.00 22.10"
/>
<path stroke="#e6e6e6" vector-effect="non-scaling-stroke" d="
  M 540.00 23.76
  L 540.00 30.10"
/>
<path stroke="#e6e6e6" vector-effect="non-scaling-stroke" d="
  M 540.00 33.76
  Q 539.40 35.95 540.00 38.10"
/>
<path stroke="#e6e6e6" vector-effect="non-scaling-stroke" d="
  M 540.00 41.76
  Q 539.40 43.95 540.00 46.10"
/>
<path stroke="#e6e6e6" vector-effect="non-scaling-stroke" d="
  M 540.00 49.76
  Q 539.40 51.95 540.00 54.10"
/>
<path stroke="#e6e6e6" vector-effect="non-scaling-stroke" d="
  M 540.00 57.76
  Q 539.40 59.95 540.00 62.10"
/>
<path stroke="#e6e6e6" vector-effect="non-scaling-stroke" d="
  M 540.00 65.76
  Q 539.40 67.95 540.00 70.10"
/>
<path stroke="#e6e6e6" vector-effect="non-scaling-stroke" d="
  M 540.00 73.76
  Q 539.40 75.95 540.00 78.10"
/>
<path stroke="#e6e6e6" vector-effect="non-scaling-stroke" d="
  M 540.00 81.76
  Q 539.41 83.94 540.00 86.10"
/>
<path stroke="#e6e6e6" vector-effect="non-scaling-stroke" d="
  M 540.00 89.76
  Q 539.41 91.94 540.00 94.10"
/>
<path stroke="#e6e6e6" vector-effect="non-scaling-stroke" d="
  M 540.00 97.76
  Q 539.41 99.94 540.00 102.10"
/>
<path stroke="#e6e6e6" vector-effect="non-scaling-stroke" d="
  M 540.00 105.76
  Q 539.41 107.94 540.00 110.10"
/>
<path stroke="#e6e6e6" vector-effect="non-scaling-stroke" d="
  M 540.00 113.76
  Q 539.41 115.94 540.00 118.10"
/>
<path stroke="#e6e6e6" vector-effect="non-scaling-stroke" d="
  M 540.00 121.76
  Q 539.41 123.94 540.00 126.10"
/>
<path stroke="#e6e6e6" vector-effect="non-scaling-stroke" d="
  M 540.00 129.76
  Q 539.41 131.94 540.00 134.10"
/>
<path stroke="#e6e6e6" vector-effect="non-scaling-stroke" d="
  M 540.00 137.76
  Q 539.41 139.94 540.00 142.10"
/>
<path stroke="#e6e6e6" vector-effect="non-scaling-stroke" d="
  M 540.00 145.76
  Q 539.41 147.94 540.00 150.10"
/>
<path stroke="#e6e6e6" vector-effect="non-scaling-stroke" d="
  M 540.00 153.76
  Q 539.40 155.95 540.00 158.10"
/>
<path stroke="#e6e6e6" vector-effect="non-scaling-stroke" d="
  M 540.00 161.76
  Q 539.40 163.95 540.00 166.10"
/>
<path stroke="#e6e6e6" vector-effect="non-scaling-stroke" d="
  M 540.00 169.76
  Q 539.40 171.95 540.00 174.10"
/>
<path stroke="#e6e6e6" vector-effect="non-scaling-stroke" d="
  M 540.00 177.76
  Q 539.40 179.95 540.00 182.10"
/>
<path stroke="#e6e6e6" vector-effect="non-scaling-stroke" d="
  M 540.00 185.76
  Q 539.40 187.95 540.00 190.10"
/>
<path stroke="#e6e6e6" vector-effect="non-scaling-stroke" d="
  M 540.00 193.76
  Q 539.40 195.95 540.00 198.10"
/>
<path stroke="#e6e6e6" vector-effect="non-scaling-stroke" d="
  M 540.00 201.76
  Q 539.40 203.95 540.00 206.10"
/>
<path stroke="#e6e6e6" vector-effect="non-scaling-stroke" d="
  M 540.00 209.76
  Q 539.41 211.94 540.00 214.10"
/>
<path stroke="#e6e6e6" vector-effect="non-scaling-stroke" d="
  M 540.00 217.76
  Q 539.41 219.94 540.00 222.10"
/>
<path stroke="#e6e6e6" vector-effect="non-scaling-stroke" d="
  M 540.00 225.76
  Q 539.41 227.94 540.00 230.10"
/>
<path stroke="#e6e6e6" vector-effect="non-scaling-stroke" d="
  M 540.00 233.76
  Q 539.41 235.94 540.00 238.10"
/>
<path stroke="#e6e6e6" vector-effect="non-scaling-stroke" d="
  M 540.00 241.76
  Q 539.41 243.94 540.00 246.10"
/>
<path stroke="#e6e6e6" vector-effect="non-scaling-stroke" d="
  M 540.00 249.76
  Q 539.41 251.94 540.00 254.10"
/>
<path stroke="#e6e6e6" vector-effect="non-scaling-stroke" d="
  M 540.00 257.76
  Q 539.40 259.95 540.00 262.10"
/>
<path stroke="#e6e6e6" vector-effect="non-scaling-stroke" d="
  M 540.00 265.76
  Q 539.40 267.95 540.00 270.10"
/>
<path stroke="#e6e6e6" vector-effect="non-scaling-stroke" d="
  M 540.00 273.76
  Q 539.40 275.95 540.00 278.10"
/>
<path stroke="#e6e6e6" vector-effect="non-scaling-stroke" d="
  M 540.00 281.76
  Q 539.40 283.95 540.00 286.10"
/>
<path stroke="#e6e6e6" vector-effect="non-scaling-stroke" d="
  M 540.00 289.76
  Q 539.40 291.95 540.00 294.10"
/>
<path stroke="#e6e6e6" vector-effect="non-scaling-stroke" d="
  M 540.00 297.76
  Q 539.40 299.95 540.00 302.10"
/>
<path stroke="#e6e6e6" vector-effect="non-scaling-stroke" d="
  M 540.00 305.76
  Q 539.41 307.94 540.00 310.10"
/>
<path stroke="#e6e6e6" vector-effect="non-scaling-stroke" d="
  M 540.00 313.76
  Q 539.41 315.94 540.00 318.10"
/>
<path stroke="#e6e6e6" vector-effect="non-scaling-stroke" d="
  M 540.00 321.76
  Q 539.41 323.94 540.00 326.10"
/>
<path stroke="#e6e6e6" vector-effect="non-scaling-stroke" d="
  M 540.00 329.76
  Q 539.40 331.95 540.00 334.10"
/>
<path stroke="#e6e6e6" vector-effect="non-scaling-stroke" d="
  M 540.00 337.76
  Q 539.40 339.95 540.00 342.10"
/>
<path stroke="#e6e6e6" vector-effect="non-scaling-stroke" d="
  M 540.00 345.76
  Q 539.40 347.95 540.00 350.10"
/>
<path stroke="#e6e6e6" vector-effect="non-scaling-stroke" d="
  M 540.00 353.76
  Q 539.40 355.95 540.00 358.10"
/>
<path stroke="#e6e6e6" vector-effect="non-scaling-stroke" d="
  M 540.00 361.76
  Q 539.40 363.95 540.00 366.10"
/>
<path stroke="#e6e6e6" vector-effect="non-scaling-stroke" d="
  M 540.00 369.76
  Q 539.40 371.95 540.00 374.10"
/>
<path stroke="#e6e6e6" vector-effect="non-scaling-stroke" d="
  M 540.00 377.76
  Q 539.40 379.95 540.00 382.10"
/>
<path stroke="#e6e6e6" vector-effect="non-scaling-stroke" d="
  M 540.00 385.76
  Q 539.40 387.95 540.00 390.10"
/>
<path stroke="#e6e6e6" vector-effect="non-scaling-stroke" d="
  M 540.00 393.76
  Q 539.40 395.95 540.00 398.10"
/>
<path stroke="#e6e6e6" vector-effect="non-scaling-stroke" d="
  M 540.00 401.76
  Q 539.40 403.95 540.00 406.10"
/>
<path stroke="#e6e6e6" vector-effect="non-scaling-stroke" d="
  M 540.00 409.76
  Q 539.40 411.95 540.00 414.10"
/>
<path stroke="#e6e6e6" vector-effect="non-scaling-stroke" d="
  M 540.00 417.76
  Q 539.41 419.94 540.00 422.10"
/>
<path stroke="#e6e6e6" vector-effect="non-scaling-stroke" d="
  M 540.00 425.76
  Q 539.41 427.94 540.00 430.10"
/>
<path stroke="#e6e6e6" vector-effect="non-scaling-stroke" d="
  M 540.00 433.76
  Q 539.41 435.94 540.00 438.10"
/>
<path stroke="#e6e6e6" vector-effect="non-scaling-stroke" d="
  M 540.00 441.76
  Q 539.41 443.94 540.00 446.10"
/>
<path stroke="#e6e6e6" vector-effect="non-scaling-stroke" d="
  M 540.00 449.76
  Q 539.41 451.94 540.00 454.10"
/>
<path stroke="#e6e6e6" vector-effect="non-scaling-stroke" d="
  M 540.00 457.76
  Q 539.41 459.94 540.00 462.10"
/>
<path stroke="#e6e6e6" vector-effect="non-scaling-stroke" d="
  M 540.00 465.76
  Q 539.41 467.94 540.00 470.10"
/>
<path stroke="#e6e6e6" vector-effect="non-scaling-stroke" d="
  M 540.00 473.76
  Q 539.41 475.94 540.00 478.10"
/>
<path stroke="#e6e6e6" vector-effect="non-scaling-stroke" d="
  M 540.00 481.76
  Q 539.40 483.95 540.00 486.10"
/>
<path stroke="#e6e6e6" vector-effect="non-scaling-stroke" d="
  M 540.00 489.76
  Q 539.40 491.95 540.00 494.10"
/>
<path stroke="#e6e6e6" vector-effect="non-scaling-stroke" d="
  M 540.00 497.76
  Q 539.41 499.94 540.00 502.10"
/>
<path stroke="#e6e6e6" vector-effect="non-scaling-stroke" d="
  M 540.00 505.76
  Q 539.41 507.94 540.00 510.10"
/>
<path stroke="#e6e6e6" vector-effect="non-scaling-stroke" d="
  M 540.00 513.76
  Q 539.41 515.94 540.00 518.10"
/>
<path stroke="#e6e6e6" vector-effect="non-scaling-stroke" d="
  M 540.00 521.76
  Q 539.41 523.94 540.00 526.10"
/>
<path stroke="#e6e6e6" vector-effect="non-scaling-stroke" d="
  M 540.00 529.76
  Q 539.40 531.95 540.00 534.10"
/>
<path stroke="#e6e6e6" vector-effect="non-scaling-stroke" d="
  M 540.00 537.76
  Q 539.40 539.95 540.00 542.10"
/>
<path stroke="#e6e6e6" vector-effect="non-scaling-stroke" d="
  M 540.00 545.76
  Q 539.40 547.95 540.00 550.10"
/>
<path stroke="#e6e6e6" vector-effect="non-scaling-stroke" d="
  M 540.00 553.76
  Q 539.40 555.95 540.00 558.10"
/>
<path stroke="#e6e6e6" vector-effect="non-scaling-stroke" d="
  M 540.00 561.76
  Q 539.40 563.95 540.00 566.10"
/>
<path stroke="#e6e6e6" vector-effect="non-scaling-stroke" d="
  M 540.00 569.76
  Q 539.41 571.94 540.00 574.10"
/>
<path stroke="#e6e6e6" vector-effect="non-scaling-stroke" d="
  M 540.00 577.76
  Q 539.41 579.94 540.00 582.10"
/>
<path stroke="#e6e6e6" vector-effect="non-scaling-stroke" d="
  M 540.00 585.76
  Q 539.40 587.95 540.00 590.10"
/>
<path stroke="#e6e6e6" vector-effect="non-scaling-stroke" d="
  M 540.00 593.76
  Q 539.41 595.94 540.00 598.10"
/>
<path stroke="#e6e6e6" vector-effect="non-scaling-stroke" d="
  M 540.00 601.76
  Q 539.41 603.94 540.00 606.10"
/>
<path stroke="#e6e6e6" vector-effect="non-scaling-stroke" d="
  M 540.00 609.76
  Q 539.41 611.94 540.00 614.10"
/>
<path stroke="#e6e6e6" vector-effect="non-scaling-stroke" d="
  M 540.00 617.76
  Q 539.41 619.96 540.00 622.09"
/>
<path stroke="#e6e6e6" vector-effect="non-scaling-stroke" d="
  M 540.00 642.77
  Q 539.39 645.08 540.00 647.33"
/>
<path stroke="#e6e6e6" vector-effect="non-scaling-stroke" d="
  M 540.00 714.79
  Q 539.38 716.90 540.00 719.11"
/>
<path stroke="#e6e6e6" vector-effect="non-scaling-stroke" d="
  M 540.00 719.32
  L 502.42 720.00"
/>
<path stroke="#e6e6e6" vector-effect="non-scaling-stroke" d="
  M 496.95 720.00
  L 418.18 720.00"
/>
<path stroke="#e6e6e6" vector-effect="non-scaling-stroke" d="
  M 391.97 720.00
  L 381.90 720.00"
/>
<path stroke="#e6e6e6" vector-effect="non-scaling-stroke" d="
  M 380.95 720.00
  L 349.92 720.00"
/>
<path stroke="#e6e6e6" vector-effect="non-scaling-stroke" d="
  M 331.47 720.00
  L 322.15 720.00"
/>
<path stroke="#e6e6e6" vector-effect="non-scaling-stroke" d="
  M 319.98 720.00
  L 309.91 720.00"
/>
<path stroke="#e6e6e6" vector-effect="non-scaling-stroke" d="
  M 296.48 720.00
  Q 293.67 719.40 290.91 720.00"
/>
<path stroke="#e6e6e6" vector-effect="non-scaling-stroke" d="
  M 260.46 720.00
  L 250.15 720.00"
/>
<path stroke="#e6e6e6" vector-effect="non-scaling-stroke" d="
  M 248.48 720.00
  L 237.91 720.00"
/>
<path stroke="#e6e6e6" vector-effect="non-scaling-stroke" d="
  M 232.98 720.00
  L 226.15 720.00"
/>
<path stroke="#e6e6e6" vector-effect="non-scaling-stroke" d="
  M 223.98 720.00
  L 213.90 720.00"
/>
<path stroke="#e6e6e6" vector-effect="non-scaling-stroke" d="
  M 212.96 720.00
  L 194.17 720.00"
/>
<path stroke="#e6e6e6" vector-effect="non-scaling-stroke" d="
  M 187.98 720.00
  L 178.15 720.00"
/>
<path stroke="#e6e6e6" vector-effect="non-scaling-stroke" d="
  M 172.98 720.00
  L 166.15 720.00"
/>
<path stroke="#e6e6e6" vector-effect="non-scaling-stroke" d="
  M 151.96 720.00
  L 132.17 720.00"
/>
<path stroke="#e6e6e6" vector-effect="non-scaling-stroke" d="
  M 123.49 720.00
  Q 120.69 719.41 117.89 720.00"
/>
<path stroke="#e6e6e6" vector-effect="non-scaling-stroke" d="
  M 116.71 720.00
  L 96.17 720.00"
/>
<path stroke="#e6e6e6" vector-effect="non-scaling-stroke" d="
  M 41.20 720.00
  L 21.91 720.00"
/>
<path stroke="#e6e6e6" vector-effect="non-scaling-stroke" d="
  M 20.70 720.00
  L 0.94 719.66
  Q 0.40 719.65 0.28 719.14
  L 0.00 717.94"
/>
<path stroke="#888888" vector-effect="non-scaling-stroke" d="
  M 266.11 375.65
  Q 267.39 376.79 268.97 377.51
  C 282.21 383.56 298.20 380.33 303.25 365.32
  C 307.73 351.99 305.58 335.15 293.28 326.91
  Q 281.99 319.34 269.21 325.93
  C 250.38 335.64 251.94 363.04 266.11 375.65"
/>
<path stroke="#87a0fa" vector-effect="non-scaling-stroke" d="
  M 410.53 697.29
  L 410.75 686.07
  A 2.39 2.39 0.0 0 0 408.40 683.63
  L 406.26 683.59
  A 6.23 5.71 -88.9 0 0 400.43 689.71
  L 400.37 693.25
  A 6.23 5.71 -88.9 0 0 405.96 699.59
  L 408.10 699.63
  A 2.39 2.39 0.0 0 0 410.53 697.29"
/>
<path stroke="#87a0fa" vector-effect="non-scaling-stroke" d="
  M 450.46 690.59
  L 463.73 703.94
  A 1.46 1.45 -43.4 0 0 465.73 703.99
  Q 472.74 697.68 478.59 691.35
  C 480.79 688.97 477.53 684.80 474.80 687.30
  Q 471.47 690.34 468.61 693.47
  A 0.31 0.30 65.5 0 1 468.08 693.27
  L 467.81 675.65
  Q 467.80 674.94 467.09 674.93
  L 463.50 674.85
  Q 462.79 674.83 462.56 675.51
  C 461.08 679.86 462.01 688.24 462.00 692.99
  A 0.46 0.46 0.0 0 1 461.21 693.32
  L 454.58 686.69
  A 1.20 1.18 58.7 0 0 453.39 686.39
  Q 450.89 687.15 450.24 689.78
  A 0.85 0.84 -60.5 0 0 450.46 690.59"
/>
<path stroke="#87a0fa" vector-effect="non-scaling-stroke" d="
  M 193.29 675.51
  L 193.21 698.95
  A 0.28 0.28 0.0 0 0 193.49 699.23
  L 196.15 699.24
  A 9.97 9.82 -89.8 0 0 206.00 689.30
  L 206.02 685.24
  A 9.97 9.82 -89.8 0 0 196.23 675.24
  L 193.57 675.23
  A 0.28 0.28 0.0 0 0 193.29 675.51"
/>
<path stroke="#87a0fa" vector-effect="non-scaling-stroke" d="
  M 124.89 688.94
  L 134.65 688.80
  A 0.47 0.47 0.0 0 0 135.11 688.33
  L 135.11 688.20
  A 5.28 5.24 89.2 0 0 129.80 682.99
  L 129.58 682.99
  A 5.28 5.24 89.2 0 0 124.41 688.34
  L 124.42 688.47
  A 0.47 0.47 0.0 0 0 124.89 688.94"
/>
<path stroke="#87a0fa" vector-effect="non-scaling-stroke" d="
  M 152.49 688.86
  L 162.57 688.65
  A 0.26 0.26 0.0 0 0 162.82 688.39
  L 162.82 688.22
  A 5.27 5.24 88.8 0 0 157.47 683.06
  L 157.35 683.06
  A 5.27 5.24 88.8 0 0 152.22 688.44
  L 152.23 688.61
  A 0.26 0.26 0.0 0 0 152.49 688.86"
/>
<path stroke="#87a0fa" vector-effect="non-scaling-stroke" d="
  M 231.0636 699.8999
  A 8.32 5.68 89.7 0 0 236.6999 691.5503
  A 8.32 5.68 89.7 0 0 230.9764 683.2601
  A 8.32 5.68 89.7 0 0 225.3401 691.6097
  A 8.32 5.68 89.7 0 0 231.0636 699.8999"
/>
<path stroke="#87a0fa" vector-effect="non-scaling-stroke" d="
  M 348.0055 699.8800
  A 8.32 5.68 90.1 0 0 353.7000 691.5699
  A 8.32 5.68 90.1 0 0 348.0345 683.2400
  A 8.32 5.68 90.1 0 0 342.3400 691.5501
  A 8.32 5.68 90.1 0 0 348.0055 699.8800"
/>
<path stroke="#87a0fa" vector-effect="non-scaling-stroke" d="
  M 377.90 691.93
  L 371.71 695.07
  A 1.48 1.48 0.0 0 0 371.06 697.06
  L 371.31 697.55
  A 4.67 4.54 -26.9 0 0 377.52 699.48
  L 378.02 699.23
  A 4.67 4.54 -26.9 0 0 380.13 693.07
  L 379.89 692.59
  A 1.48 1.48 0.0 0 0 377.90 691.93"
/>
</g>
<path fill="#ffffff" d="
  M 0.00 0.00
  L 539.26 0.00
  L 539.05 654.92
  Q 539.05 655.51 538.47 655.51
  L 5.73 650.69
  A 0.50 0.49 -36.9 0 0 5.59 651.66
  Q 6.00 651.77 6.57 651.78
  C 83.02 652.57 158.23 653.01 236.00 653.98
  C 311.89 654.92 428.57 656.04 538.48 656.65
  A 0.59 0.59 0.0 0 1 539.06 657.24
  Q 538.82 683.99 539.29 709.75
  Q 539.33 711.78 538.87 717.95
  Q 538.83 718.46 538.32 718.46
  L 442.70 718.42
  Q 442.57 718.42 442.48 718.33
  Q 442.40 718.24 442.23 718.24
  Q 221.92 718.13 1.51 718.38
  Q 1.01 718.38 1.01 717.88
  Q 0.97 359.47 1.01 1.06
  Q 1.01 0.68 0.78 0.48
  Q 0.36 0.10 0.30 0.67
  Q 0.23 1.28 0.00 1.19
  L 0.00 0.00
  Z
  M 256.33 294.01
  A 0.31 0.31 0.0 0 1 256.01 293.69
  L 256.18 283.56
  A 0.31 0.31 0.0 0 0 255.87 283.25
  L 251.32 283.25
  A 0.31 0.31 0.0 0 0 251.01 283.56
  L 250.98 308.51
  A 0.31 0.31 0.0 0 0 251.30 308.83
  L 255.79 308.75
  A 0.31 0.31 0.0 0 0 256.09 308.45
  L 256.26 296.50
  A 0.31 0.31 0.0 0 1 256.57 296.19
  L 266.44 296.26
  A 0.31 0.31 0.0 0 1 266.75 296.57
  L 266.75 308.58
  A 0.31 0.31 0.0 0 0 267.08 308.89
  L 271.21 308.68
  A 0.31 0.31 0.0 0 0 271.50 308.38
  L 271.50 283.65
  A 0.31 0.31 0.0 0 0 271.22 283.35
  L 267.09 282.99
  A 0.31 0.31 0.0 0 0 266.75 283.30
  L 266.75 293.66
  A 0.31 0.31 0.0 0 1 266.44 293.97
  L 256.33 294.01
  Z
  M 285.35 295.78
  L 291.81 296.73
  Q 292.41 296.81 292.36 296.21
  L 292.21 294.45
  Q 292.15 293.75 291.45 293.75
  L 285.26 293.75
  A 0.48 0.48 0.0 0 1 284.78 293.26
  L 284.92 285.70
  Q 284.92 285.41 285.21 285.36
  Q 289.48 284.60 293.16 286.69
  A 0.39 0.39 0.0 0 0 293.72 286.21
  L 292.78 283.81
  Q 292.59 283.31 292.06 283.31
  L 280.97 283.12
  Q 280.56 283.11 280.56 283.52
  L 280.36 308.27
  Q 280.36 308.68 280.77 308.69
  L 293.43 308.90
  Q 293.92 308.91 294.29 308.59
  Q 295.82 307.28 296.24 305.26
  Q 296.36 304.71 295.86 304.98
  Q 290.96 307.65 285.30 306.58
  Q 284.93 306.51 284.93 306.13
  L 284.93 296.15
  Q 284.93 295.72 285.35 295.78
  Z
  M 236.54 285.07
  L 242.69 286.02
  Q 243.22 286.10 243.50 286.55
  L 244.53 288.19
  A 0.62 0.61 20.7 0 0 245.64 287.69
  L 244.49 283.81
  A 0.78 0.77 -7.9 0 0 243.74 283.25
  L 223.15 283.25
  Q 222.81 283.25 222.67 283.57
  L 221.37 286.65
  A 0.50 0.50 0.0 0 0 222.08 287.27
  Q 225.85 285.05 230.30 285.29
  Q 230.88 285.32 230.87 285.90
  L 230.67 308.21
  Q 230.67 308.75 231.21 308.75
  L 235.34 308.75
  Q 235.92 308.75 235.92 308.16
  L 235.85 285.67
  Q 235.85 284.96 236.54 285.07
  Z
  M 256.82 375.91
  Q 262.33 380.75 266.00 382.28
  C 286.98 390.99 313.43 380.71 314.76 355.39
  C 314.94 351.91 315.18 348.47 314.61 345.22
  C 310.55 321.81 284.02 313.35 264.26 322.58
  C 243.38 332.33 239.39 360.56 256.82 375.91
  Z
  M 375.23 341.84
  Q 381.77 342.57 383.06 349.14
  C 384.80 358.08 380.15 386.54 397.57 382.58
  Q 401.11 381.78 402.38 378.74
  A 0.40 0.40 0.0 0 0 401.92 378.19
  C 400.21 378.56 398.63 379.92 397.07 379.88
  C 391.36 379.74 391.50 360.90 391.15 356.82
  C 390.42 348.33 388.79 342.44 380.46 339.99
  Q 379.93 339.83 380.30 339.42
  L 396.86 320.89
  Q 397.05 320.67 396.76 320.68
  L 391.24 320.79
  A 0.47 0.46 -69.1 0 0 390.89 320.95
  L 375.14 337.91
  Q 374.71 338.38 374.71 337.74
  L 374.77 321.34
  Q 374.77 320.72 374.15 320.72
  L 366.24 320.76
  A 0.50 0.50 0.0 0 0 365.75 321.26
  Q 365.76 348.08 365.74 374.93
  C 365.74 376.89 365.05 379.53 365.29 381.91
  Q 365.36 382.59 366.03 382.57
  L 374.22 382.32
  Q 374.75 382.30 374.75 381.78
  L 374.75 342.26
  Q 374.75 341.78 375.23 341.84
  Z
  M 43.48 382.23
  A 0.31 0.31 0.0 0 0 43.76 381.92
  L 43.73 334.21
  A 0.31 0.31 0.0 0 1 44.28 334.02
  L 82.73 382.72
  A 0.31 0.31 0.0 0 0 83.28 382.52
  L 83.18 321.06
  A 0.31 0.31 0.0 0 0 82.87 320.75
  L 78.47 320.75
  A 0.31 0.31 0.0 0 0 78.16 321.06
  L 78.12 359.62
  A 0.31 0.31 0.0 0 1 77.57 359.81
  L 46.42 320.88
  A 0.31 0.31 0.0 0 0 46.18 320.76
  L 39.14 320.75
  A 0.31 0.31 0.0 0 0 38.83 321.06
  L 38.54 382.35
  A 0.31 0.31 0.0 0 0 38.88 382.66
  L 43.48 382.23
  Z
  M 101.00 377.02
  L 101.00 350.74
  Q 101.00 350.11 101.63 350.08
  C 105.45 349.87 114.51 348.85 116.79 352.70
  A 0.34 0.34 0.0 0 0 117.43 352.52
  L 117.29 343.94
  A 0.34 0.33 70.3 0 0 116.75 343.68
  C 113.03 346.70 107.98 345.97 101.77 345.60
  Q 101.27 345.57 101.26 345.07
  L 101.08 325.19
  A 0.47 0.47 0.0 0 1 101.49 324.72
  Q 108.90 323.83 115.60 327.08
  A 0.49 0.38 1.1 0 1 115.76 327.21
  L 116.67 328.31
  A 0.43 0.43 0.0 0 0 117.38 327.85
  L 114.02 321.17
  Q 113.80 320.75 113.33 320.75
  L 91.75 320.75
  Q 91.25 320.75 91.25 321.25
  L 91.25 382.01
  A 0.51 0.51 0.0 0 0 91.76 382.52
  L 127.56 382.49
  Q 128.12 382.49 128.37 381.99
  L 132.80 373.07
  A 0.26 0.26 0.0 0 0 132.43 372.73
  C 123.22 378.57 112.89 378.16 101.62 377.67
  A 0.65 0.65 0.0 0 1 101.00 377.02
  Z
  M 156.81 363.50
  A 0.42 0.42 0.0 0 1 157.57 363.50
  L 166.37 382.10
  A 0.43 0.43 0.0 0 0 167.15 382.10
  L 194.35 321.36
  Q 194.62 320.75 193.96 320.75
  L 189.36 320.75
  Q 188.82 320.75 188.60 321.24
  L 168.96 365.04
  A 0.29 0.29 0.0 0 1 168.43 365.04
  L 162.52 351.56
  Q 162.35 351.18 162.52 350.79
  L 175.05 321.53
  Q 175.25 321.05 174.75 320.93
  Q 170.25 319.87 169.12 323.20
  C 166.97 329.57 163.47 335.66 160.60 341.76
  A 1.57 1.56 -38.2 0 0 160.48 342.76
  Q 160.64 343.49 160.30 344.13
  Q 159.88 344.94 159.48 344.12
  L 148.17 321.20
  Q 147.95 320.75 147.45 320.75
  L 139.51 320.75
  Q 138.75 320.75 139.04 321.45
  Q 146.03 338.03 153.74 354.29
  C 155.29 357.57 152.40 361.42 150.21 365.11
  Q 149.94 365.56 149.79 365.06
  Q 148.70 361.62 146.49 356.97
  Q 141.96 347.46 129.93 321.20
  Q 129.73 320.75 129.23 320.75
  L 120.32 320.75
  Q 119.82 320.75 120.02 321.20
  L 147.63 382.56
  Q 147.98 383.35 148.33 382.56
  L 156.81 363.50
  Z
  M 227.99 348.32
  L 212.11 321.22
  Q 211.84 320.75 211.30 320.75
  L 207.02 320.75
  A 0.46 0.46 0.0 0 0 206.59 321.37
  Q 207.48 323.76 208.83 325.93
  Q 215.92 337.44 222.31 349.36
  Q 223.43 351.46 223.47 353.26
  Q 223.64 363.51 223.39 381.88
  Q 223.38 382.49 223.99 382.49
  L 232.63 382.53
  Q 233.20 382.53 233.21 381.95
  Q 233.35 363.72 233.24 354.25
  C 233.20 350.21 234.50 348.67 236.31 345.49
  Q 243.14 333.48 250.31 321.63
  Q 250.73 320.93 249.92 320.89
  L 245.32 320.69
  Q 244.78 320.67 244.50 321.14
  L 228.59 348.32
  Q 228.29 348.83 227.99 348.32
  Z
  M 340.51 346.90
  C 351.36 343.40 355.74 330.05 345.10 323.08
  C 340.08 319.79 328.73 320.46 322.89 320.91
  Q 322.39 320.95 322.36 321.45
  C 321.13 341.49 322.07 362.08 321.86 382.20
  Q 321.86 382.54 322.20 382.54
  L 330.83 382.54
  Q 331.45 382.54 331.45 381.92
  L 331.52 325.75
  A 1.16 1.16 0.0 0 1 332.75 324.59
  L 337.26 324.83
  Q 337.71 324.85 338.09 325.10
  C 346.19 330.50 344.10 343.78 335.01 346.82
  A 0.59 0.58 -52.7 0 0 335.16 347.96
  C 338.92 348.14 341.40 350.22 342.33 354.01
  C 344.30 361.99 342.39 372.38 346.63 379.19
  Q 351.02 386.25 360.45 381.24
  Q 362.41 380.19 361.48 378.16
  A 0.53 0.53 0.0 0 0 360.60 378.04
  C 357.59 381.67 354.51 379.86 353.16 376.17
  C 349.47 366.14 354.80 350.88 340.53 347.37
  A 0.25 0.24 42.9 0 1 340.51 346.90
  Z
  M 415.09 377.04
  L 415.23 350.70
  Q 415.23 349.43 416.50 349.45
  C 420.64 349.53 427.53 348.96 430.52 351.13
  Q 431.25 351.65 431.25 350.75
  L 431.25 345.07
  A 0.51 0.51 0.0 0 0 430.47 344.63
  L 429.00 345.54
  A 1.48 1.47 29.3 0 1 428.24 345.75
  L 415.78 345.75
  Q 415.06 345.75 415.06 345.03
  L 415.07 325.76
  A 1.13 1.12 86.9 0 1 416.07 324.64
  Q 424.09 323.74 431.68 326.28
  Q 432.25 326.47 432.58 326.97
  L 433.44 328.31
  A 0.56 0.56 0.0 0 0 434.44 327.81
  L 432.02 321.12
  Q 431.90 320.79 431.55 320.79
  L 407.30 320.73
  A 1.29 1.29 0.0 0 0 406.01 322.02
  L 405.98 382.02
  Q 405.98 382.53 406.49 382.52
  Q 416.65 382.44 426.87 382.52
  C 431.41 382.55 434.16 379.56 435.40 375.51
  Q 435.57 374.96 435.04 375.17
  Q 425.65 378.95 415.48 377.49
  Q 415.09 377.43 415.09 377.04
  Z
  M 458.97 347.52
  A 0.40 0.39 42.0 0 1 458.93 346.80
  C 466.03 343.21 470.65 338.80 468.26 330.09
  C 465.18 318.90 449.14 320.16 440.36 320.94
  A 0.20 0.20 0.0 0 0 440.18 321.14
  Q 440.34 335.83 440.23 350.56
  C 440.18 357.97 439.47 371.48 439.83 382.00
  Q 439.85 382.53 440.38 382.53
  L 448.26 382.49
  A 1.00 1.00 0.0 0 0 449.25 381.49
  L 449.25 325.81
  Q 449.25 325.28 449.76 325.10
  C 460.50 321.44 462.69 333.91 459.77 340.89
  C 458.48 343.98 455.81 345.50 452.83 346.65
  A 0.64 0.64 0.0 0 0 452.92 347.87
  Q 460.71 349.51 461.25 357.94
  C 461.69 364.80 460.87 372.58 464.37 378.74
  C 467.67 384.57 474.90 384.63 479.45 380.18
  Q 480.28 379.37 479.63 378.19
  Q 479.47 377.90 479.18 378.06
  L 474.71 380.55
  A 0.88 0.88 0.0 0 1 473.65 380.37
  C 467.91 374.08 469.54 364.35 468.13 356.44
  C 467.05 350.35 463.89 349.49 458.97 347.52
  Z
  M 328.79 698.95
  L 328.73 667.49
  Q 328.73 666.75 327.99 666.75
  L 322.45 666.75
  Q 321.79 666.75 321.78 667.42
  Q 321.66 690.05 321.79 697.19
  C 321.90 703.19 325.19 707.23 331.60 705.06
  Q 332.01 704.92 331.94 704.49
  L 331.30 700.45
  Q 331.23 700.00 330.78 699.88
  L 329.19 699.47
  A 0.54 0.53 -83.1 0 1 328.79 698.95
  Z
  M 410.46 679.88
  C 408.36 678.91 407.05 677.29 404.14 677.47
  C 394.48 678.10 391.99 688.77 393.67 696.55
  C 395.44 704.72 404.25 709.02 410.81 702.39
  A 0.62 0.62 0.0 0 1 411.86 702.74
  L 412.10 704.47
  A 0.61 0.60 86.2 0 0 412.70 705.00
  L 417.00 705.00
  Q 417.75 705.00 417.75 704.25
  L 417.75 667.25
  Q 417.75 666.75 417.25 666.75
  L 411.33 666.75
  A 0.65 0.65 0.0 0 0 410.68 667.42
  L 411.05 679.50
  Q 411.07 680.16 410.46 679.88
  Z
  M 487.97 689.70
  A 23.07 23.07 0.0 0 0 464.90 666.63
  A 23.07 23.07 0.0 0 0 441.83 689.70
  A 23.07 23.07 0.0 0 0 464.90 712.77
  A 23.07 23.07 0.0 0 0 487.97 689.70
  Z
  M 79.25 675.70
  A 0.38 0.38 0.0 0 1 79.63 675.32
  L 93.62 675.27
  A 0.38 0.38 0.0 0 0 94.00 674.89
  L 94.00 669.88
  A 0.38 0.38 0.0 0 0 93.62 669.50
  L 72.64 669.50
  A 0.38 0.38 0.0 0 0 72.26 669.88
  L 72.23 704.62
  A 0.38 0.38 0.0 0 0 72.61 705.00
  L 78.87 705.00
  A 0.38 0.38 0.0 0 0 79.25 704.62
  L 79.25 690.88
  A 0.38 0.38 0.0 0 1 79.63 690.50
  L 91.37 690.50
  A 0.38 0.38 0.0 0 0 91.75 690.12
  L 91.75 685.13
  A 0.38 0.38 0.0 0 0 91.37 684.75
  L 79.63 684.75
  A 0.38 0.38 0.0 0 1 79.25 684.37
  L 79.25 675.70
  Z
  M 186.29 669.72
  L 186.17 704.72
  A 0.25 0.25 0.0 0 0 186.42 704.97
  L 197.06 705.01
  A 16.13 15.69 0.2 0 0 213.24 689.38
  L 213.26 685.26
  A 16.13 15.69 0.2 0 0 197.18 669.51
  L 186.54 669.47
  A 0.25 0.25 0.0 0 0 186.29 669.72
  Z
  M 104.73 682.23
  L 104.42 678.84
  A 0.66 0.65 87.1 0 0 103.77 678.25
  L 99.00 678.25
  Q 98.50 678.25 98.50 678.75
  L 98.50 704.37
  Q 98.50 705.00 99.13 705.00
  L 104.96 705.00
  Q 105.49 705.00 105.49 704.47
  C 105.51 697.95 102.55 682.48 113.99 683.86
  Q 114.60 683.93 114.71 683.33
  L 115.61 678.64
  Q 115.72 678.07 115.17 677.90
  C 110.74 676.51 108.20 678.90 105.23 682.39
  Q 104.79 682.91 104.73 682.23
  Z
  M 124.99 693.50
  L 140.27 693.50
  Q 140.82 693.50 140.89 692.96
  C 143.53 670.85 115.46 674.38 117.43 692.76
  C 118.77 705.22 129.20 708.07 139.46 703.00
  A 0.68 0.67 61.7 0 0 139.74 702.05
  L 137.87 698.83
  Q 137.61 698.39 137.16 698.64
  C 132.21 701.36 125.48 700.61 124.52 694.05
  Q 124.44 693.50 124.99 693.50
  Z
  M 152.74 693.50
  L 168.01 693.50
  Q 168.52 693.50 168.59 692.99
  C 169.45 685.95 166.63 678.17 158.94 677.63
  C 146.48 676.76 141.23 692.34 148.32 700.97
  C 153.03 706.71 161.24 706.78 167.26 702.82
  Q 167.72 702.52 167.46 702.03
  L 165.73 698.80
  A 0.51 0.51 0.0 0 0 165.05 698.59
  C 159.90 701.31 153.30 700.71 152.24 694.09
  Q 152.15 693.50 152.74 693.50
  Z
  M 231.0691 705.6499
  A 14.08 12.90 89.8 0 0 243.9199 691.5250
  A 14.08 12.90 89.8 0 0 230.9709 677.4901
  A 14.08 12.90 89.8 0 0 218.1201 691.6150
  A 14.08 12.90 89.8 0 0 231.0691 705.6499
  Z
  M 297.00 680.99
  L 297.00 679.00
  A 0.75 0.75 0.0 0 0 296.25 678.25
  L 291.75 678.25
  Q 291.00 678.25 291.00 679.00
  L 291.00 704.38
  Q 291.00 705.00 291.63 705.00
  L 297.22 705.00
  Q 298.00 705.00 298.00 704.22
  L 298.00 687.27
  A 1.13 1.09 66.2 0 1 298.27 686.54
  C 301.21 683.05 307.59 681.76 307.57 688.20
  Q 307.53 696.28 307.47 704.44
  Q 307.47 705.00 308.03 705.00
  L 313.80 705.00
  Q 314.38 705.00 314.40 704.43
  C 314.65 698.79 315.73 685.10 312.31 680.54
  C 308.41 675.35 302.14 677.82 297.77 681.36
  A 0.47 0.47 0.0 0 1 297.00 680.99
  Z
  M 347.9118 705.6297
  A 14.07 12.90 90.4 0 0 360.9097 691.6501
  A 14.07 12.90 90.4 0 0 348.1082 677.4903
  A 14.07 12.90 90.4 0 0 335.1103 691.4699
  A 14.07 12.90 90.4 0 0 347.9118 705.6297
  Z
  M 381.17 702.72
  L 381.30 704.42
  Q 381.34 705.00 381.92 705.00
  L 386.48 705.00
  Q 387.08 705.00 387.12 704.40
  Q 387.65 695.76 386.84 687.19
  C 385.72 675.41 373.76 675.88 366.23 681.03
  Q 365.88 681.28 366.08 681.66
  L 368.00 685.31
  A 0.48 0.48 0.0 0 0 368.69 685.48
  C 371.71 683.48 380.05 680.88 380.03 687.37
  Q 380.03 687.98 379.42 688.02
  Q 372.58 688.53 368.83 690.83
  C 358.98 696.86 367.98 711.43 380.34 702.34
  Q 381.09 701.79 381.17 702.72
  Z
  M 266.60 686.26
  L 270.64 704.18
  Q 270.82 705.00 271.66 705.00
  L 278.57 705.00
  Q 279.15 705.00 279.29 704.44
  L 285.62 678.70
  Q 285.75 678.18 285.22 678.19
  L 279.66 678.28
  Q 279.18 678.29 279.08 678.76
  L 275.07 698.46
  A 0.21 0.20 44.4 0 1 274.67 698.46
  L 269.92 678.73
  Q 269.81 678.25 269.31 678.25
  L 264.11 678.25
  Q 263.43 678.25 263.28 678.91
  L 258.66 698.48
  A 0.15 0.15 0.0 0 1 258.36 698.48
  L 254.30 679.05
  Q 254.13 678.25 253.31 678.25
  L 247.82 678.25
  Q 247.13 678.25 247.30 678.92
  L 253.88 704.37
  A 0.84 0.84 0.0 0 0 254.69 705.00
  L 261.55 705.00
  Q 262.12 705.00 262.24 704.45
  L 266.24 686.26
  A 0.18 0.18 0.0 0 1 266.60 686.26
  Z"
/>
<path fill="#cdcdcd" d="
  M 539.26 0.00
  L 540.00 0.00
  L 540.00 15.77
  L 540.00 22.10
  L 540.00 23.76
  L 540.00 30.10
  L 540.00 33.76
  Q 539.40 35.95 540.00 38.10
  L 540.00 41.76
  Q 539.40 43.95 540.00 46.10
  L 540.00 49.76
  Q 539.40 51.95 540.00 54.10
  L 540.00 57.76
  Q 539.40 59.95 540.00 62.10
  L 540.00 65.76
  Q 539.40 67.95 540.00 70.10
  L 540.00 73.76
  Q 539.40 75.95 540.00 78.10
  L 540.00 81.76
  Q 539.41 83.94 540.00 86.10
  L 540.00 89.76
  Q 539.41 91.94 540.00 94.10
  L 540.00 97.76
  Q 539.41 99.94 540.00 102.10
  L 540.00 105.76
  Q 539.41 107.94 540.00 110.10
  L 540.00 113.76
  Q 539.41 115.94 540.00 118.10
  L 540.00 121.76
  Q 539.41 123.94 540.00 126.10
  L 540.00 129.76
  Q 539.41 131.94 540.00 134.10
  L 540.00 137.76
  Q 539.41 139.94 540.00 142.10
  L 540.00 145.76
  Q 539.41 147.94 540.00 150.10
  L 540.00 153.76
  Q 539.40 155.95 540.00 158.10
  L 540.00 161.76
  Q 539.40 163.95 540.00 166.10
  L 540.00 169.76
  Q 539.40 171.95 540.00 174.10
  L 540.00 177.76
  Q 539.40 179.95 540.00 182.10
  L 540.00 185.76
  Q 539.40 187.95 540.00 190.10
  L 540.00 193.76
  Q 539.40 195.95 540.00 198.10
  L 540.00 201.76
  Q 539.40 203.95 540.00 206.10
  L 540.00 209.76
  Q 539.41 211.94 540.00 214.10
  L 540.00 217.76
  Q 539.41 219.94 540.00 222.10
  L 540.00 225.76
  Q 539.41 227.94 540.00 230.10
  L 540.00 233.76
  Q 539.41 235.94 540.00 238.10
  L 540.00 241.76
  Q 539.41 243.94 540.00 246.10
  L 540.00 249.76
  Q 539.41 251.94 540.00 254.10
  L 540.00 257.76
  Q 539.40 259.95 540.00 262.10
  L 540.00 265.76
  Q 539.40 267.95 540.00 270.10
  L 540.00 273.76
  Q 539.40 275.95 540.00 278.10
  L 540.00 281.76
  Q 539.40 283.95 540.00 286.10
  L 540.00 289.76
  Q 539.40 291.95 540.00 294.10
  L 540.00 297.76
  Q 539.40 299.95 540.00 302.10
  L 540.00 305.76
  Q 539.41 307.94 540.00 310.10
  L 540.00 313.76
  Q 539.41 315.94 540.00 318.10
  L 540.00 321.76
  Q 539.41 323.94 540.00 326.10
  L 540.00 329.76
  Q 539.40 331.95 540.00 334.10
  L 540.00 337.76
  Q 539.40 339.95 540.00 342.10
  L 540.00 345.76
  Q 539.40 347.95 540.00 350.10
  L 540.00 353.76
  Q 539.40 355.95 540.00 358.10
  L 540.00 361.76
  Q 539.40 363.95 540.00 366.10
  L 540.00 369.76
  Q 539.40 371.95 540.00 374.10
  L 540.00 377.76
  Q 539.40 379.95 540.00 382.10
  L 540.00 385.76
  Q 539.40 387.95 540.00 390.10
  L 540.00 393.76
  Q 539.40 395.95 540.00 398.10
  L 540.00 401.76
  Q 539.40 403.95 540.00 406.10
  L 540.00 409.76
  Q 539.40 411.95 540.00 414.10
  L 540.00 417.76
  Q 539.41 419.94 540.00 422.10
  L 540.00 425.76
  Q 539.41 427.94 540.00 430.10
  L 540.00 433.76
  Q 539.41 435.94 540.00 438.10
  L 540.00 441.76
  Q 539.41 443.94 540.00 446.10
  L 540.00 449.76
  Q 539.41 451.94 540.00 454.10
  L 540.00 457.76
  Q 539.41 459.94 540.00 462.10
  L 540.00 465.76
  Q 539.41 467.94 540.00 470.10
  L 540.00 473.76
  Q 539.41 475.94 540.00 478.10
  L 540.00 481.76
  Q 539.40 483.95 540.00 486.10
  L 540.00 489.76
  Q 539.40 491.95 540.00 494.10
  L 540.00 497.76
  Q 539.41 499.94 540.00 502.10
  L 540.00 505.76
  Q 539.41 507.94 540.00 510.10
  L 540.00 513.76
  Q 539.41 515.94 540.00 518.10
  L 540.00 521.76
  Q 539.41 523.94 540.00 526.10
  L 540.00 529.76
  Q 539.40 531.95 540.00 534.10
  L 540.00 537.76
  Q 539.40 539.95 540.00 542.10
  L 540.00 545.76
  Q 539.40 547.95 540.00 550.10
  L 540.00 553.76
  Q 539.40 555.95 540.00 558.10
  L 540.00 561.76
  Q 539.40 563.95 540.00 566.10
  L 540.00 569.76
  Q 539.41 571.94 540.00 574.10
  L 540.00 577.76
  Q 539.41 579.94 540.00 582.10
  L 540.00 585.76
  Q 539.40 587.95 540.00 590.10
  L 540.00 593.76
  Q 539.41 595.94 540.00 598.10
  L 540.00 601.76
  Q 539.41 603.94 540.00 606.10
  L 540.00 609.76
  Q 539.41 611.94 540.00 614.10
  L 540.00 617.76
  Q 539.41 619.96 540.00 622.09
  L 540.00 642.77
  Q 539.39 645.08 540.00 647.33
  L 540.00 714.79
  Q 539.38 716.90 540.00 719.11
  Q 539.98 719.21 540.00 719.32
  L 502.42 720.00
  L 496.95 720.00
  L 418.18 720.00
  L 391.97 720.00
  L 381.90 720.00
  L 380.95 720.00
  L 349.92 720.00
  L 331.47 720.00
  L 322.15 720.00
  L 319.98 720.00
  L 309.91 720.00
  L 296.48 720.00
  Q 293.67 719.40 290.91 720.00
  L 260.46 720.00
  L 250.15 720.00
  L 248.48 720.00
  L 237.91 720.00
  L 232.98 720.00
  L 226.15 720.00
  L 223.98 720.00
  L 213.90 720.00
  L 212.96 720.00
  L 194.17 720.00
  L 187.98 720.00
  L 178.15 720.00
  L 172.98 720.00
  L 166.15 720.00
  L 151.96 720.00
  L 132.17 720.00
  L 123.49 720.00
  Q 120.69 719.41 117.89 720.00
  L 116.71 720.00
  L 96.17 720.00
  L 41.20 720.00
  L 21.91 720.00
  L 20.70 720.00
  L 0.94 719.66
  Q 0.40 719.65 0.28 719.14
  L 0.00 717.94
  L 0.00 1.19
  Q 0.23 1.28 0.30 0.67
  Q 0.36 0.10 0.78 0.48
  Q 1.01 0.68 1.01 1.06
  Q 0.97 359.47 1.01 717.88
  Q 1.01 718.38 1.51 718.38
  Q 221.92 718.13 442.23 718.24
  Q 442.40 718.24 442.48 718.33
  Q 442.57 718.42 442.70 718.42
  L 538.32 718.46
  Q 538.83 718.46 538.87 717.95
  Q 539.33 711.78 539.29 709.75
  Q 538.82 683.99 539.06 657.24
  A 0.59 0.59 0.0 0 0 538.48 656.65
  C 428.57 656.04 311.89 654.92 236.00 653.98
  C 158.23 653.01 83.02 652.57 6.57 651.78
  Q 6.00 651.77 5.59 651.66
  A 0.50 0.49 -36.9 0 1 5.73 650.69
  L 538.47 655.51
  Q 539.05 655.51 539.05 654.92
  L 539.26 0.00
  Z"
/>
<path fill="#ffffff" d="
  M 540.00 15.77
  L 540.00 22.10
  L 540.00 15.77
  Z"
/>
<path fill="#ffffff" d="
  M 540.00 23.76
  L 540.00 30.10
  L 540.00 23.76
  Z"
/>
<path fill="#ffffff" d="
  M 540.00 33.76
  L 540.00 38.10
  Q 539.40 35.95 540.00 33.76
  Z"
/>
<path fill="#ffffff" d="
  M 540.00 41.76
  L 540.00 46.10
  Q 539.40 43.95 540.00 41.76
  Z"
/>
<path fill="#ffffff" d="
  M 540.00 49.76
  L 540.00 54.10
  Q 539.40 51.95 540.00 49.76
  Z"
/>
<path fill="#ffffff" d="
  M 540.00 57.76
  L 540.00 62.10
  Q 539.40 59.95 540.00 57.76
  Z"
/>
<path fill="#ffffff" d="
  M 540.00 65.76
  L 540.00 70.10
  Q 539.40 67.95 540.00 65.76
  Z"
/>
<path fill="#ffffff" d="
  M 540.00 73.76
  L 540.00 78.10
  Q 539.40 75.95 540.00 73.76
  Z"
/>
<path fill="#ffffff" d="
  M 540.00 81.76
  L 540.00 86.10
  Q 539.41 83.94 540.00 81.76
  Z"
/>
<path fill="#ffffff" d="
  M 540.00 89.76
  L 540.00 94.10
  Q 539.41 91.94 540.00 89.76
  Z"
/>
<path fill="#ffffff" d="
  M 540.00 97.76
  L 540.00 102.10
  Q 539.41 99.94 540.00 97.76
  Z"
/>
<path fill="#ffffff" d="
  M 540.00 105.76
  L 540.00 110.10
  Q 539.41 107.94 540.00 105.76
  Z"
/>
<path fill="#ffffff" d="
  M 540.00 113.76
  L 540.00 118.10
  Q 539.41 115.94 540.00 113.76
  Z"
/>
<path fill="#ffffff" d="
  M 540.00 121.76
  L 540.00 126.10
  Q 539.41 123.94 540.00 121.76
  Z"
/>
<path fill="#ffffff" d="
  M 540.00 129.76
  L 540.00 134.10
  Q 539.41 131.94 540.00 129.76
  Z"
/>
<path fill="#ffffff" d="
  M 540.00 137.76
  L 540.00 142.10
  Q 539.41 139.94 540.00 137.76
  Z"
/>
<path fill="#ffffff" d="
  M 540.00 145.76
  L 540.00 150.10
  Q 539.41 147.94 540.00 145.76
  Z"
/>
<path fill="#ffffff" d="
  M 540.00 153.76
  L 540.00 158.10
  Q 539.40 155.95 540.00 153.76
  Z"
/>
<path fill="#ffffff" d="
  M 540.00 161.76
  L 540.00 166.10
  Q 539.40 163.95 540.00 161.76
  Z"
/>
<path fill="#ffffff" d="
  M 540.00 169.76
  L 540.00 174.10
  Q 539.40 171.95 540.00 169.76
  Z"
/>
<path fill="#ffffff" d="
  M 540.00 177.76
  L 540.00 182.10
  Q 539.40 179.95 540.00 177.76
  Z"
/>
<path fill="#ffffff" d="
  M 540.00 185.76
  L 540.00 190.10
  Q 539.40 187.95 540.00 185.76
  Z"
/>
<path fill="#ffffff" d="
  M 540.00 193.76
  L 540.00 198.10
  Q 539.40 195.95 540.00 193.76
  Z"
/>
<path fill="#ffffff" d="
  M 540.00 201.76
  L 540.00 206.10
  Q 539.40 203.95 540.00 201.76
  Z"
/>
<path fill="#ffffff" d="
  M 540.00 209.76
  L 540.00 214.10
  Q 539.41 211.94 540.00 209.76
  Z"
/>
<path fill="#ffffff" d="
  M 540.00 217.76
  L 540.00 222.10
  Q 539.41 219.94 540.00 217.76
  Z"
/>
<path fill="#ffffff" d="
  M 540.00 225.76
  L 540.00 230.10
  Q 539.41 227.94 540.00 225.76
  Z"
/>
<path fill="#ffffff" d="
  M 540.00 233.76
  L 540.00 238.10
  Q 539.41 235.94 540.00 233.76
  Z"
/>
<path fill="#ffffff" d="
  M 540.00 241.76
  L 540.00 246.10
  Q 539.41 243.94 540.00 241.76
  Z"
/>
<path fill="#ffffff" d="
  M 540.00 249.76
  L 540.00 254.10
  Q 539.41 251.94 540.00 249.76
  Z"
/>
<path fill="#ffffff" d="
  M 540.00 257.76
  L 540.00 262.10
  Q 539.40 259.95 540.00 257.76
  Z"
/>
<path fill="#ffffff" d="
  M 540.00 265.76
  L 540.00 270.10
  Q 539.40 267.95 540.00 265.76
  Z"
/>
<path fill="#ffffff" d="
  M 540.00 273.76
  L 540.00 278.10
  Q 539.40 275.95 540.00 273.76
  Z"
/>
<path fill="#ffffff" d="
  M 540.00 281.76
  L 540.00 286.10
  Q 539.40 283.95 540.00 281.76
  Z"
/>
<path fill="#111111" d="
  M 256.33 294.01
  L 266.44 293.97
  A 0.31 0.31 0.0 0 0 266.75 293.66
  L 266.75 283.30
  A 0.31 0.31 0.0 0 1 267.09 282.99
  L 271.22 283.35
  A 0.31 0.31 0.0 0 1 271.50 283.65
  L 271.50 308.38
  A 0.31 0.31 0.0 0 1 271.21 308.68
  L 267.08 308.89
  A 0.31 0.31 0.0 0 1 266.75 308.58
  L 266.75 296.57
  A 0.31 0.31 0.0 0 0 266.44 296.26
  L 256.57 296.19
  A 0.31 0.31 0.0 0 0 256.26 296.50
  L 256.09 308.45
  A 0.31 0.31 0.0 0 1 255.79 308.75
  L 251.30 308.83
  A 0.31 0.31 0.0 0 1 250.98 308.51
  L 251.01 283.56
  A 0.31 0.31 0.0 0 1 251.32 283.25
  L 255.87 283.25
  A 0.31 0.31 0.0 0 1 256.18 283.56
  L 256.01 293.69
  A 0.31 0.31 0.0 0 0 256.33 294.01
  Z"
/>
<path fill="#111111" d="
  M 284.93 296.15
  L 284.93 306.13
  Q 284.93 306.51 285.30 306.58
  Q 290.96 307.65 295.86 304.98
  Q 296.36 304.71 296.24 305.26
  Q 295.82 307.28 294.29 308.59
  Q 293.92 308.91 293.43 308.90
  L 280.77 308.69
  Q 280.36 308.68 280.36 308.27
  L 280.56 283.52
  Q 280.56 283.11 280.97 283.12
  L 292.06 283.31
  Q 292.59 283.31 292.78 283.81
  L 293.72 286.21
  A 0.39 0.39 0.0 0 1 293.16 286.69
  Q 289.48 284.60 285.21 285.36
  Q 284.92 285.41 284.92 285.70
  L 284.78 293.26
  A 0.48 0.48 0.0 0 0 285.26 293.75
  L 291.45 293.75
  Q 292.15 293.75 292.21 294.45
  L 292.36 296.21
  Q 292.41 296.81 291.81 296.73
  L 285.35 295.78
  Q 284.93 295.72 284.93 296.15
  Z"
/>
<path fill="#111111" d="
  M 235.85 285.67
  L 235.92 308.16
  Q 235.92 308.75 235.34 308.75
  L 231.21 308.75
  Q 230.67 308.75 230.67 308.21
  L 230.87 285.90
  Q 230.88 285.32 230.30 285.29
  Q 225.85 285.05 222.08 287.27
  A 0.50 0.50 0.0 0 1 221.37 286.65
  L 222.67 283.57
  Q 222.81 283.25 223.15 283.25
  L 243.74 283.25
  A 0.78 0.77 -7.9 0 1 244.49 283.81
  L 245.64 287.69
  A 0.62 0.61 20.7 0 1 244.53 288.19
  L 243.50 286.55
  Q 243.22 286.10 242.69 286.02
  L 236.54 285.07
  Q 235.85 284.96 235.85 285.67
  Z"
/>
<path fill="#ffffff" d="
  M 540.00 289.76
  L 540.00 294.10
  Q 539.40 291.95 540.00 289.76
  Z"
/>
<path fill="#ffffff" d="
  M 540.00 297.76
  L 540.00 302.10
  Q 539.40 299.95 540.00 297.76
  Z"
/>
<path fill="#ffffff" d="
  M 540.00 305.76
  L 540.00 310.10
  Q 539.41 307.94 540.00 305.76
  Z"
/>
<path fill="#ffffff" d="
  M 540.00 313.76
  L 540.00 318.10
  Q 539.41 315.94 540.00 313.76
  Z"
/>
<path fill="#111111" d="
  M 256.82 375.91
  C 239.39 360.56 243.38 332.33 264.26 322.58
  C 284.02 313.35 310.55 321.81 314.61 345.22
  C 315.18 348.47 314.94 351.91 314.76 355.39
  C 313.43 380.71 286.98 390.99 266.00 382.28
  Q 262.33 380.75 256.82 375.91
  Z
  M 266.11 375.65
  Q 267.39 376.79 268.97 377.51
  C 282.21 383.56 298.20 380.33 303.25 365.32
  C 307.73 351.99 305.58 335.15 293.28 326.91
  Q 281.99 319.34 269.21 325.93
  C 250.38 335.64 251.94 363.04 266.11 375.65
  Z"
/>
<path fill="#111111" d="
  M 374.75 342.26
  L 374.75 381.78
  Q 374.75 382.30 374.22 382.32
  L 366.03 382.57
  Q 365.36 382.59 365.29 381.91
  C 365.05 379.53 365.74 376.89 365.74 374.93
  Q 365.76 348.08 365.75 321.26
  A 0.50 0.50 0.0 0 1 366.24 320.76
  L 374.15 320.72
  Q 374.77 320.72 374.77 321.34
  L 374.71 337.74
  Q 374.71 338.38 375.14 337.91
  L 390.89 320.95
  A 0.47 0.46 -69.1 0 1 391.24 320.79
  L 396.76 320.68
  Q 397.05 320.67 396.86 320.89
  L 380.30 339.42
  Q 379.93 339.83 380.46 339.99
  C 388.79 342.44 390.42 348.33 391.15 356.82
  C 391.50 360.90 391.36 379.74 397.07 379.88
  C 398.63 379.92 400.21 378.56 401.92 378.19
  A 0.40 0.40 0.0 0 1 402.38 378.74
  Q 401.11 381.78 397.57 382.58
  C 380.15 386.54 384.80 358.08 383.06 349.14
  Q 381.77 342.57 375.23 341.84
  Q 374.75 341.78 374.75 342.26
  Z"
/>
<path fill="#111111" d="
  M 43.48 382.23
  L 38.88 382.66
  A 0.31 0.31 0.0 0 1 38.54 382.35
  L 38.83 321.06
  A 0.31 0.31 0.0 0 1 39.14 320.75
  L 46.18 320.76
  A 0.31 0.31 0.0 0 1 46.42 320.88
  L 77.57 359.81
  A 0.31 0.31 0.0 0 0 78.12 359.62
  L 78.16 321.06
  A 0.31 0.31 0.0 0 1 78.47 320.75
  L 82.87 320.75
  A 0.31 0.31 0.0 0 1 83.18 321.06
  L 83.28 382.52
  A 0.31 0.31 0.0 0 1 82.73 382.72
  L 44.28 334.02
  A 0.31 0.31 0.0 0 0 43.73 334.21
  L 43.76 381.92
  A 0.31 0.31 0.0 0 1 43.48 382.23
  Z"
/>
<path fill="#111111" d="
  M 101.62 377.67
  C 112.89 378.16 123.22 378.57 132.43 372.73
  A 0.26 0.26 0.0 0 1 132.80 373.07
  L 128.37 381.99
  Q 128.12 382.49 127.56 382.49
  L 91.76 382.52
  A 0.51 0.51 0.0 0 1 91.25 382.01
  L 91.25 321.25
  Q 91.25 320.75 91.75 320.75
  L 113.33 320.75
  Q 113.80 320.75 114.02 321.17
  L 117.38 327.85
  A 0.43 0.43 0.0 0 1 116.67 328.31
  L 115.76 327.21
  A 0.49 0.38 1.1 0 0 115.60 327.08
  Q 108.90 323.83 101.49 324.72
  A 0.47 0.47 0.0 0 0 101.08 325.19
  L 101.26 345.07
  Q 101.27 345.57 101.77 345.60
  C 107.98 345.97 113.03 346.70 116.75 343.68
  A 0.34 0.33 70.3 0 1 117.29 343.94
  L 117.43 352.52
  A 0.34 0.34 0.0 0 1 116.79 352.70
  C 114.51 348.85 105.45 349.87 101.63 350.08
  Q 101.00 350.11 101.00 350.74
  L 101.00 377.02
  A 0.65 0.65 0.0 0 0 101.62 377.67
  Z"
/>
<path fill="#111111" d="
  M 156.81 363.50
  L 148.33 382.56
  Q 147.98 383.35 147.63 382.56
  L 120.02 321.20
  Q 119.82 320.75 120.32 320.75
  L 129.23 320.75
  Q 129.73 320.75 129.93 321.20
  Q 141.96 347.46 146.49 356.97
  Q 148.70 361.62 149.79 365.06
  Q 149.94 365.56 150.21 365.11
  C 152.40 361.42 155.29 357.57 153.74 354.29
  Q 146.03 338.03 139.04 321.45
  Q 138.75 320.75 139.51 320.75
  L 147.45 320.75
  Q 147.95 320.75 148.17 321.20
  L 159.48 344.12
  Q 159.88 344.94 160.30 344.13
  Q 160.64 343.49 160.48 342.76
  A 1.57 1.56 -38.2 0 1 160.60 341.76
  C 163.47 335.66 166.97 329.57 169.12 323.20
  Q 170.25 319.87 174.75 320.93
  Q 175.25 321.05 175.05 321.53
  L 162.52 350.79
  Q 162.35 351.18 162.52 351.56
  L 168.43 365.04
  A 0.29 0.29 0.0 0 0 168.96 365.04
  L 188.60 321.24
  Q 188.82 320.75 189.36 320.75
  L 193.96 320.75
  Q 194.62 320.75 194.35 321.36
  L 167.15 382.10
  A 0.43 0.43 0.0 0 1 166.37 382.10
  L 157.57 363.50
  A 0.42 0.42 0.0 0 0 156.81 363.50
  Z"
/>
<path fill="#111111" d="
  M 228.59 348.32
  L 244.50 321.14
  Q 244.78 320.67 245.32 320.69
  L 249.92 320.89
  Q 250.73 320.93 250.31 321.63
  Q 243.14 333.48 236.31 345.49
  C 234.50 348.67 233.20 350.21 233.24 354.25
  Q 233.35 363.72 233.21 381.95
  Q 233.20 382.53 232.63 382.53
  L 223.99 382.49
  Q 223.38 382.49 223.39 381.88
  Q 223.64 363.51 223.47 353.26
  Q 223.43 351.46 222.31 349.36
  Q 215.92 337.44 208.83 325.93
  Q 207.48 323.76 206.59 321.37
  A 0.46 0.46 0.0 0 1 207.02 320.75
  L 211.30 320.75
  Q 211.84 320.75 212.11 321.22
  L 227.99 348.32
  Q 228.29 348.83 228.59 348.32
  Z"
/>
<path fill="#111111" d="
  M 340.51 346.90
  A 0.25 0.24 42.9 0 0 340.53 347.37
  C 354.80 350.88 349.47 366.14 353.16 376.17
  C 354.51 379.86 357.59 381.67 360.60 378.04
  A 0.53 0.53 0.0 0 1 361.48 378.16
  Q 362.41 380.19 360.45 381.24
  Q 351.02 386.25 346.63 379.19
  C 342.39 372.38 344.30 361.99 342.33 354.01
  C 341.40 350.22 338.92 348.14 335.16 347.96
  A 0.59 0.58 -52.7 0 1 335.01 346.82
  C 344.10 343.78 346.19 330.50 338.09 325.10
  Q 337.71 324.85 337.26 324.83
  L 332.75 324.59
  A 1.16 1.16 0.0 0 0 331.52 325.75
  L 331.45 381.92
  Q 331.45 382.54 330.83 382.54
  L 322.20 382.54
  Q 321.86 382.54 321.86 382.20
  C 322.07 362.08 321.13 341.49 322.36 321.45
  Q 322.39 320.95 322.89 320.91
  C 328.73 320.46 340.08 319.79 345.10 323.08
  C 355.74 330.05 351.36 343.40 340.51 346.90
  Z"
/>
<path fill="#111111" d="
  M 415.48 377.49
  Q 425.65 378.95 435.04 375.17
  Q 435.57 374.96 435.40 375.51
  C 434.16 379.56 431.41 382.55 426.87 382.52
  Q 416.65 382.44 406.49 382.52
  Q 405.98 382.53 405.98 382.02
  L 406.01 322.02
  A 1.29 1.29 0.0 0 1 407.30 320.73
  L 431.55 320.79
  Q 431.90 320.79 432.02 321.12
  L 434.44 327.81
  A 0.56 0.56 0.0 0 1 433.44 328.31
  L 432.58 326.97
  Q 432.25 326.47 431.68 326.28
  Q 424.09 323.74 416.07 324.64
  A 1.13 1.12 86.9 0 0 415.07 325.76
  L 415.06 345.03
  Q 415.06 345.75 415.78 345.75
  L 428.24 345.75
  A 1.48 1.47 29.3 0 0 429.00 345.54
  L 430.47 344.63
  A 0.51 0.51 0.0 0 1 431.25 345.07
  L 431.25 350.75
  Q 431.25 351.65 430.52 351.13
  C 427.53 348.96 420.64 349.53 416.50 349.45
  Q 415.23 349.43 415.23 350.70
  L 415.09 377.04
  Q 415.09 377.43 415.48 377.49
  Z"
/>
<path fill="#111111" d="
  M 458.97 347.52
  C 463.89 349.49 467.05 350.35 468.13 356.44
  C 469.54 364.35 467.91 374.08 473.65 380.37
  A 0.88 0.88 0.0 0 0 474.71 380.55
  L 479.18 378.06
  Q 479.47 377.90 479.63 378.19
  Q 480.28 379.37 479.45 380.18
  C 474.90 384.63 467.67 384.57 464.37 378.74
  C 460.87 372.58 461.69 364.80 461.25 357.94
  Q 460.71 349.51 452.92 347.87
  A 0.64 0.64 0.0 0 1 452.83 346.65
  C 455.81 345.50 458.48 343.98 459.77 340.89
  C 462.69 333.91 460.50 321.44 449.76 325.10
  Q 449.25 325.28 449.25 325.81
  L 449.25 381.49
  A 1.00 1.00 0.0 0 1 448.26 382.49
  L 440.38 382.53
  Q 439.85 382.53 439.83 382.00
  C 439.47 371.48 440.18 357.97 440.23 350.56
  Q 440.34 335.83 440.18 321.14
  A 0.20 0.20 0.0 0 1 440.36 320.94
  C 449.14 320.16 465.18 318.90 468.26 330.09
  C 470.65 338.80 466.03 343.21 458.93 346.80
  A 0.40 0.39 42.0 0 0 458.97 347.52
  Z"
/>
<path fill="#ffffff" d="
  M 540.00 321.76
  L 540.00 326.10
  Q 539.41 323.94 540.00 321.76
  Z"
/>
<path fill="#ffffff" d="
  M 266.11 375.65
  C 251.94 363.04 250.38 335.64 269.21 325.93
  Q 281.99 319.34 293.28 326.91
  C 305.58 335.15 307.73 351.99 303.25 365.32
  C 298.20 380.33 282.21 383.56 268.97 377.51
  Q 267.39 376.79 266.11 375.65
  Z"
/>
<path fill="#ffffff" d="
  M 540.00 329.76
  L 540.00 334.10
  Q 539.40 331.95 540.00 329.76
  Z"
/>
<path fill="#ffffff" d="
  M 540.00 337.76
  L 540.00 342.10
  Q 539.40 339.95 540.00 337.76
  Z"
/>
<path fill="#ffffff" d="
  M 540.00 345.76
  L 540.00 350.10
  Q 539.40 347.95 540.00 345.76
  Z"
/>
<path fill="#ffffff" d="
  M 540.00 353.76
  L 540.00 358.10
  Q 539.40 355.95 540.00 353.76
  Z"
/>
<path fill="#ffffff" d="
  M 540.00 361.76
  L 540.00 366.10
  Q 539.40 363.95 540.00 361.76
  Z"
/>
<path fill="#ffffff" d="
  M 540.00 369.76
  L 540.00 374.10
  Q 539.40 371.95 540.00 369.76
  Z"
/>
<path fill="#ffffff" d="
  M 540.00 377.76
  L 540.00 382.10
  Q 539.40 379.95 540.00 377.76
  Z"
/>
<path fill="#ffffff" d="
  M 540.00 385.76
  L 540.00 390.10
  Q 539.40 387.95 540.00 385.76
  Z"
/>
<path fill="#ffffff" d="
  M 540.00 393.76
  L 540.00 398.10
  Q 539.40 395.95 540.00 393.76
  Z"
/>
<path fill="#ffffff" d="
  M 540.00 401.76
  L 540.00 406.10
  Q 539.40 403.95 540.00 401.76
  Z"
/>
<path fill="#ffffff" d="
  M 540.00 409.76
  L 540.00 414.10
  Q 539.40 411.95 540.00 409.76
  Z"
/>
<path fill="#ffffff" d="
  M 540.00 417.76
  L 540.00 422.10
  Q 539.41 419.94 540.00 417.76
  Z"
/>
<path fill="#ffffff" d="
  M 540.00 425.76
  L 540.00 430.10
  Q 539.41 427.94 540.00 425.76
  Z"
/>
<path fill="#ffffff" d="
  M 540.00 433.76
  L 540.00 438.10
  Q 539.41 435.94 540.00 433.76
  Z"
/>
<path fill="#ffffff" d="
  M 540.00 441.76
  L 540.00 446.10
  Q 539.41 443.94 540.00 441.76
  Z"
/>
<path fill="#ffffff" d="
  M 540.00 449.76
  L 540.00 454.10
  Q 539.41 451.94 540.00 449.76
  Z"
/>
<path fill="#ffffff" d="
  M 540.00 457.76
  L 540.00 462.10
  Q 539.41 459.94 540.00 457.76
  Z"
/>
<path fill="#ffffff" d="
  M 540.00 465.76
  L 540.00 470.10
  Q 539.41 467.94 540.00 465.76
  Z"
/>
<path fill="#ffffff" d="
  M 540.00 473.76
  L 540.00 478.10
  Q 539.41 475.94 540.00 473.76
  Z"
/>
<path fill="#ffffff" d="
  M 540.00 481.76
  L 540.00 486.10
  Q 539.40 483.95 540.00 481.76
  Z"
/>
<path fill="#ffffff" d="
  M 540.00 489.76
  L 540.00 494.10
  Q 539.40 491.95 540.00 489.76
  Z"
/>
<path fill="#ffffff" d="
  M 540.00 497.76
  L 540.00 502.10
  Q 539.41 499.94 540.00 497.76
  Z"
/>
<path fill="#ffffff" d="
  M 540.00 505.76
  L 540.00 510.10
  Q 539.41 507.94 540.00 505.76
  Z"
/>
<path fill="#ffffff" d="
  M 540.00 513.76
  L 540.00 518.10
  Q 539.41 515.94 540.00 513.76
  Z"
/>
<path fill="#ffffff" d="
  M 540.00 521.76
  L 540.00 526.10
  Q 539.41 523.94 540.00 521.76
  Z"
/>
<path fill="#ffffff" d="
  M 540.00 529.76
  L 540.00 534.10
  Q 539.40 531.95 540.00 529.76
  Z"
/>
<path fill="#ffffff" d="
  M 540.00 537.76
  L 540.00 542.10
  Q 539.40 539.95 540.00 537.76
  Z"
/>
<path fill="#ffffff" d="
  M 540.00 545.76
  L 540.00 550.10
  Q 539.40 547.95 540.00 545.76
  Z"
/>
<path fill="#ffffff" d="
  M 540.00 553.76
  L 540.00 558.10
  Q 539.40 555.95 540.00 553.76
  Z"
/>
<path fill="#ffffff" d="
  M 540.00 561.76
  L 540.00 566.10
  Q 539.40 563.95 540.00 561.76
  Z"
/>
<path fill="#ffffff" d="
  M 540.00 569.76
  L 540.00 574.10
  Q 539.41 571.94 540.00 569.76
  Z"
/>
<path fill="#ffffff" d="
  M 540.00 577.76
  L 540.00 582.10
  Q 539.41 579.94 540.00 577.76
  Z"
/>
<path fill="#ffffff" d="
  M 540.00 585.76
  L 540.00 590.10
  Q 539.40 587.95 540.00 585.76
  Z"
/>
<path fill="#ffffff" d="
  M 540.00 593.76
  L 540.00 598.10
  Q 539.41 595.94 540.00 593.76
  Z"
/>
<path fill="#ffffff" d="
  M 540.00 601.76
  L 540.00 606.10
  Q 539.41 603.94 540.00 601.76
  Z"
/>
<path fill="#ffffff" d="
  M 540.00 609.76
  L 540.00 614.10
  Q 539.41 611.94 540.00 609.76
  Z"
/>
<path fill="#ffffff" d="
  M 540.00 617.76
  L 540.00 622.09
  Q 539.41 619.96 540.00 617.76
  Z"
/>
<path fill="#ffffff" d="
  M 540.00 642.77
  L 540.00 647.33
  Q 539.39 645.08 540.00 642.77
  Z"
/>
<path fill="#0f40f5" d="
  M 329.19 699.47
  L 330.78 699.88
  Q 331.23 700.00 331.30 700.45
  L 331.94 704.49
  Q 332.01 704.92 331.60 705.06
  C 325.19 707.23 321.90 703.19 321.79 697.19
  Q 321.66 690.05 321.78 667.42
  Q 321.79 666.75 322.45 666.75
  L 327.99 666.75
  Q 328.73 666.75 328.73 667.49
  L 328.79 698.95
  A 0.54 0.53 -83.1 0 0 329.19 699.47
  Z"
/>
<path fill="#0f40f5" d="
  M 411.05 679.50
  L 410.68 667.42
  A 0.65 0.65 0.0 0 1 411.33 666.75
  L 417.25 666.75
  Q 417.75 666.75 417.75 667.25
  L 417.75 704.25
  Q 417.75 705.00 417.00 705.00
  L 412.70 705.00
  A 0.61 0.60 86.2 0 1 412.10 704.47
  L 411.86 702.74
  A 0.62 0.62 0.0 0 0 410.81 702.39
  C 404.25 709.02 395.44 704.72 393.67 696.55
  C 391.99 688.77 394.48 678.10 404.14 677.47
  C 407.05 677.29 408.36 678.91 410.46 679.88
  Q 411.07 680.16 411.05 679.50
  Z
  M 410.53 697.29
  L 410.75 686.07
  A 2.39 2.39 0.0 0 0 408.40 683.63
  L 406.26 683.59
  A 6.23 5.71 -88.9 0 0 400.43 689.71
  L 400.37 693.25
  A 6.23 5.71 -88.9 0 0 405.96 699.59
  L 408.10 699.63
  A 2.39 2.39 0.0 0 0 410.53 697.29
  Z"
/>
<path fill="#0f40f5" d="
  M 487.97 689.70
  A 23.07 23.07 0.0 0 1 464.90 712.77
  A 23.07 23.07 0.0 0 1 441.83 689.70
  A 23.07 23.07 0.0 0 1 464.90 666.63
  A 23.07 23.07 0.0 0 1 487.97 689.70
  Z
  M 450.46 690.59
  L 463.73 703.94
  A 1.46 1.45 -43.4 0 0 465.73 703.99
  Q 472.74 697.68 478.59 691.35
  C 480.79 688.97 477.53 684.80 474.80 687.30
  Q 471.47 690.34 468.61 693.47
  A 0.31 0.30 65.5 0 1 468.08 693.27
  L 467.81 675.65
  Q 467.80 674.94 467.09 674.93
  L 463.50 674.85
  Q 462.79 674.83 462.56 675.51
  C 461.08 679.86 462.01 688.24 462.00 692.99
  A 0.46 0.46 0.0 0 1 461.21 693.32
  L 454.58 686.69
  A 1.20 1.18 58.7 0 0 453.39 686.39
  Q 450.89 687.15 450.24 689.78
  A 0.85 0.84 -60.5 0 0 450.46 690.59
  Z"
/>
<path fill="#0f40f5" d="
  M 79.25 675.70
  L 79.25 684.37
  A 0.38 0.38 0.0 0 0 79.63 684.75
  L 91.37 684.75
  A 0.38 0.38 0.0 0 1 91.75 685.13
  L 91.75 690.12
  A 0.38 0.38 0.0 0 1 91.37 690.50
  L 79.63 690.50
  A 0.38 0.38 0.0 0 0 79.25 690.88
  L 79.25 704.62
  A 0.38 0.38 0.0 0 1 78.87 705.00
  L 72.61 705.00
  A 0.38 0.38 0.0 0 1 72.23 704.62
  L 72.26 669.88
  A 0.38 0.38 0.0 0 1 72.64 669.50
  L 93.62 669.50
  A 0.38 0.38 0.0 0 1 94.00 669.88
  L 94.00 674.89
  A 0.38 0.38 0.0 0 1 93.62 675.27
  L 79.63 675.32
  A 0.38 0.38 0.0 0 0 79.25 675.70
  Z"
/>
<path fill="#0f40f5" d="
  M 186.29 669.72
  A 0.25 0.25 0.0 0 1 186.54 669.47
  L 197.18 669.51
  A 16.13 15.69 0.2 0 1 213.26 685.26
  L 213.24 689.38
  A 16.13 15.69 0.2 0 1 197.06 705.01
  L 186.42 704.97
  A 0.25 0.25 0.0 0 1 186.17 704.72
  L 186.29 669.72
  Z
  M 193.29 675.51
  L 193.21 698.95
  A 0.28 0.28 0.0 0 0 193.49 699.23
  L 196.15 699.24
  A 9.97 9.82 -89.8 0 0 206.00 689.30
  L 206.02 685.24
  A 9.97 9.82 -89.8 0 0 196.23 675.24
  L 193.57 675.23
  A 0.28 0.28 0.0 0 0 193.29 675.51
  Z"
/>
<path fill="#ffffff" d="
  M 463.73 703.94
  L 450.46 690.59
  A 0.85 0.84 -60.5 0 1 450.24 689.78
  Q 450.89 687.15 453.39 686.39
  A 1.20 1.18 58.7 0 1 454.58 686.69
  L 461.21 693.32
  A 0.46 0.46 0.0 0 0 462.00 692.99
  C 462.01 688.24 461.08 679.86 462.56 675.51
  Q 462.79 674.83 463.50 674.85
  L 467.09 674.93
  Q 467.80 674.94 467.81 675.65
  L 468.08 693.27
  A 0.31 0.30 65.5 0 0 468.61 693.47
  Q 471.47 690.34 474.80 687.30
  C 477.53 684.80 480.79 688.97 478.59 691.35
  Q 472.74 697.68 465.73 703.99
  A 1.46 1.45 -43.4 0 1 463.73 703.94
  Z"
/>
<path fill="#ffffff" d="
  M 193.29 675.51
  A 0.28 0.28 0.0 0 1 193.57 675.23
  L 196.23 675.24
  A 9.97 9.82 -89.8 0 1 206.02 685.24
  L 206.00 689.30
  A 9.97 9.82 -89.8 0 1 196.15 699.24
  L 193.49 699.23
  A 0.28 0.28 0.0 0 1 193.21 698.95
  L 193.29 675.51
  Z"
/>
<path fill="#0f40f5" d="
  M 105.23 682.39
  C 108.20 678.90 110.74 676.51 115.17 677.90
  Q 115.72 678.07 115.61 678.64
  L 114.71 683.33
  Q 114.60 683.93 113.99 683.86
  C 102.55 682.48 105.51 697.95 105.49 704.47
  Q 105.49 705.00 104.96 705.00
  L 99.13 705.00
  Q 98.50 705.00 98.50 704.37
  L 98.50 678.75
  Q 98.50 678.25 99.00 678.25
  L 103.77 678.25
  A 0.66 0.65 87.1 0 1 104.42 678.84
  L 104.73 682.23
  Q 104.79 682.91 105.23 682.39
  Z"
/>
<path fill="#0f40f5" d="
  M 124.52 694.05
  C 125.48 700.61 132.21 701.36 137.16 698.64
  Q 137.61 698.39 137.87 698.83
  L 139.74 702.05
  A 0.68 0.67 61.7 0 1 139.46 703.00
  C 129.20 708.07 118.77 705.22 117.43 692.76
  C 115.46 674.38 143.53 670.85 140.89 692.96
  Q 140.82 693.50 140.27 693.50
  L 124.99 693.50
  Q 124.44 693.50 124.52 694.05
  Z
  M 124.89 688.94
  L 134.65 688.80
  A 0.47 0.47 0.0 0 0 135.11 688.33
  L 135.11 688.20
  A 5.28 5.24 89.2 0 0 129.80 682.99
  L 129.58 682.99
  A 5.28 5.24 89.2 0 0 124.41 688.34
  L 124.42 688.47
  A 0.47 0.47 0.0 0 0 124.89 688.94
  Z"
/>
<path fill="#0f40f5" d="
  M 152.24 694.09
  C 153.30 700.71 159.90 701.31 165.05 698.59
  A 0.51 0.51 0.0 0 1 165.73 698.80
  L 167.46 702.03
  Q 167.72 702.52 167.26 702.82
  C 161.24 706.78 153.03 706.71 148.32 700.97
  C 141.23 692.34 146.48 676.76 158.94 677.63
  C 166.63 678.17 169.45 685.95 168.59 692.99
  Q 168.52 693.50 168.01 693.50
  L 152.74 693.50
  Q 152.15 693.50 152.24 694.09
  Z
  M 152.49 688.86
  L 162.57 688.65
  A 0.26 0.26 0.0 0 0 162.82 688.39
  L 162.82 688.22
  A 5.27 5.24 88.8 0 0 157.47 683.06
  L 157.35 683.06
  A 5.27 5.24 88.8 0 0 152.22 688.44
  L 152.23 688.61
  A 0.26 0.26 0.0 0 0 152.49 688.86
  Z"
/>
<path fill="#0f40f5" d="
  M 231.0691 705.6499
  A 14.08 12.90 89.8 0 1 218.1201 691.6150
  A 14.08 12.90 89.8 0 1 230.9709 677.4901
  A 14.08 12.90 89.8 0 1 243.9199 691.5250
  A 14.08 12.90 89.8 0 1 231.0691 705.6499
  Z
  M 231.0636 699.8999
  A 8.32 5.68 89.7 0 0 236.6999 691.5503
  A 8.32 5.68 89.7 0 0 230.9764 683.2601
  A 8.32 5.68 89.7 0 0 225.3401 691.6097
  A 8.32 5.68 89.7 0 0 231.0636 699.8999
  Z"
/>
<path fill="#0f40f5" d="
  M 297.77 681.36
  C 302.14 677.82 308.41 675.35 312.31 680.54
  C 315.73 685.10 314.65 698.79 314.40 704.43
  Q 314.38 705.00 313.80 705.00
  L 308.03 705.00
  Q 307.47 705.00 307.47 704.44
  Q 307.53 696.28 307.57 688.20
  C 307.59 681.76 301.21 683.05 298.27 686.54
  A 1.13 1.09 66.2 0 0 298.00 687.27
  L 298.00 704.22
  Q 298.00 705.00 297.22 705.00
  L 291.63 705.00
  Q 291.00 705.00 291.00 704.38
  L 291.00 679.00
  Q 291.00 678.25 291.75 678.25
  L 296.25 678.25
  A 0.75 0.75 0.0 0 1 297.00 679.00
  L 297.00 680.99
  A 0.47 0.47 0.0 0 0 297.77 681.36
  Z"
/>
<path fill="#0f40f5" d="
  M 347.9118 705.6297
  A 14.07 12.90 90.4 0 1 335.1103 691.4699
  A 14.07 12.90 90.4 0 1 348.1082 677.4903
  A 14.07 12.90 90.4 0 1 360.9097 691.6501
  A 14.07 12.90 90.4 0 1 347.9118 705.6297
  Z
  M 348.0055 699.8800
  A 8.32 5.68 90.1 0 0 353.7000 691.5699
  A 8.32 5.68 90.1 0 0 348.0345 683.2400
  A 8.32 5.68 90.1 0 0 342.3400 691.5501
  A 8.32 5.68 90.1 0 0 348.0055 699.8800
  Z"
/>
<path fill="#0f40f5" d="
  M 380.34 702.34
  C 367.98 711.43 358.98 696.86 368.83 690.83
  Q 372.58 688.53 379.42 688.02
  Q 380.03 687.98 380.03 687.37
  C 380.05 680.88 371.71 683.48 368.69 685.48
  A 0.48 0.48 0.0 0 1 368.00 685.31
  L 366.08 681.66
  Q 365.88 681.28 366.23 681.03
  C 373.76 675.88 385.72 675.41 386.84 687.19
  Q 387.65 695.76 387.12 704.40
  Q 387.08 705.00 386.48 705.00
  L 381.92 705.00
  Q 381.34 705.00 381.30 704.42
  L 381.17 702.72
  Q 381.09 701.79 380.34 702.34
  Z
  M 377.90 691.93
  L 371.71 695.07
  A 1.48 1.48 0.0 0 0 371.06 697.06
  L 371.31 697.55
  A 4.67 4.54 -26.9 0 0 377.52 699.48
  L 378.02 699.23
  A 4.67 4.54 -26.9 0 0 380.13 693.07
  L 379.89 692.59
  A 1.48 1.48 0.0 0 0 377.90 691.93
  Z"
/>
<path fill="#0f40f5" d="
  M 266.24 686.26
  L 262.24 704.45
  Q 262.12 705.00 261.55 705.00
  L 254.69 705.00
  A 0.84 0.84 0.0 0 1 253.88 704.37
  L 247.30 678.92
  Q 247.13 678.25 247.82 678.25
  L 253.31 678.25
  Q 254.13 678.25 254.30 679.05
  L 258.36 698.48
  A 0.15 0.15 0.0 0 0 258.66 698.48
  L 263.28 678.91
  Q 263.43 678.25 264.11 678.25
  L 269.31 678.25
  Q 269.81 678.25 269.92 678.73
  L 274.67 698.46
  A 0.21 0.20 44.4 0 0 275.07 698.46
  L 279.08 678.76
  Q 279.18 678.29 279.66 678.28
  L 285.22 678.19
  Q 285.75 678.18 285.62 678.70
  L 279.29 704.44
  Q 279.15 705.00 278.57 705.00
  L 271.66 705.00
  Q 270.82 705.00 270.64 704.18
  L 266.60 686.26
  A 0.18 0.18 0.0 0 0 266.24 686.26
  Z"
/>
<path fill="#ffffff" d="
  M 124.89 688.94
  A 0.47 0.47 0.0 0 1 124.42 688.47
  L 124.41 688.34
  A 5.28 5.24 89.2 0 1 129.58 682.99
  L 129.80 682.99
  A 5.28 5.24 89.2 0 1 135.11 688.20
  L 135.11 688.33
  A 0.47 0.47 0.0 0 1 134.65 688.80
  L 124.89 688.94
  Z"
/>
<path fill="#ffffff" d="
  M 152.49 688.86
  A 0.26 0.26 0.0 0 1 152.23 688.61
  L 152.22 688.44
  A 5.27 5.24 88.8 0 1 157.35 683.06
  L 157.47 683.06
  A 5.27 5.24 88.8 0 1 162.82 688.22
  L 162.82 688.39
  A 0.26 0.26 0.0 0 1 162.57 688.65
  L 152.49 688.86
  Z"
/>
<ellipse fill="#ffffff" cx="0.00" cy="0.00" transform="translate(231.02,691.58) rotate(89.7)" rx="8.32" ry="5.68"/>
<ellipse fill="#ffffff" cx="0.00" cy="0.00" transform="translate(348.02,691.56) rotate(90.1)" rx="8.32" ry="5.68"/>
<path fill="#ffffff" d="
  M 410.53 697.29
  A 2.39 2.39 0.0 0 1 408.10 699.63
  L 405.96 699.59
  A 6.23 5.71 -88.9 0 1 400.37 693.25
  L 400.43 689.71
  A 6.23 5.71 -88.9 0 1 406.26 683.59
  L 408.40 683.63
  A 2.39 2.39 0.0 0 1 410.75 686.07
  L 410.53 697.29
  Z"
/>
<path fill="#ffffff" d="
  M 377.90 691.93
  A 1.48 1.48 0.0 0 1 379.89 692.59
  L 380.13 693.07
  A 4.67 4.54 -26.9 0 1 378.02 699.23
  L 377.52 699.48
  A 4.67 4.54 -26.9 0 1 371.31 697.55
  L 371.06 697.06
  A 1.48 1.48 0.0 0 1 371.71 695.07
  L 377.90 691.93
  Z"
/>
<path fill="#ffffff" d="
  M 540.00 714.79
  L 540.00 719.11
  Q 539.38 716.90 540.00 714.79
  Z"
/>
<path fill="#ffffff" d="
  M 0.00 717.94
  L 0.28 719.14
  Q 0.40 719.65 0.94 719.66
  L 20.70 720.00
  L 0.00 720.00
  L 0.00 717.94
  Z"
/>
<path fill="#ffffff" d="
  M 540.00 719.32
  L 540.00 720.00
  L 502.42 720.00
  L 540.00 719.32
  Z"
/>
<path fill="#ffffff" d="
  M 41.20 720.00
  L 21.91 720.00
  L 41.20 720.00
  Z"
/>
<path fill="#ffffff" d="
  M 116.71 720.00
  L 96.17 720.00
  L 116.71 720.00
  Z"
/>
<path fill="#ffffff" d="
  M 123.49 720.00
  L 117.89 720.00
  Q 120.69 719.41 123.49 720.00
  Z"
/>
<path fill="#ffffff" d="
  M 151.96 720.00
  L 132.17 720.00
  L 151.96 720.00
  Z"
/>
<path fill="#ffffff" d="
  M 172.98 720.00
  L 166.15 720.00
  L 172.98 720.00
  Z"
/>
<path fill="#ffffff" d="
  M 187.98 720.00
  L 178.15 720.00
  L 187.98 720.00
  Z"
/>
<path fill="#ffffff" d="
  M 212.96 720.00
  L 194.17 720.00
  L 212.96 720.00
  Z"
/>
<path fill="#ffffff" d="
  M 223.98 720.00
  L 213.90 720.00
  L 223.98 720.00
  Z"
/>
<path fill="#ffffff" d="
  M 232.98 720.00
  L 226.15 720.00
  L 232.98 720.00
  Z"
/>
<path fill="#ffffff" d="
  M 248.48 720.00
  L 237.91 720.00
  L 248.48 720.00
  Z"
/>
<path fill="#ffffff" d="
  M 260.46 720.00
  L 250.15 720.00
  L 260.46 720.00
  Z"
/>
<path fill="#ffffff" d="
  M 296.48 720.00
  L 290.91 720.00
  Q 293.67 719.40 296.48 720.00
  Z"
/>
<path fill="#ffffff" d="
  M 319.98 720.00
  L 309.91 720.00
  L 319.98 720.00
  Z"
/>
<path fill="#ffffff" d="
  M 331.47 720.00
  L 322.15 720.00
  L 331.47 720.00
  Z"
/>
<path fill="#ffffff" d="
  M 380.95 720.00
  L 349.92 720.00
  L 380.95 720.00
  Z"
/>
<path fill="#ffffff" d="
  M 391.97 720.00
  L 381.90 720.00
  L 391.97 720.00
  Z"
/>
<path fill="#ffffff" d="
  M 496.95 720.00
  L 418.18 720.00
  L 496.95 720.00
  Z"
/>
</svg>
