<?xml version="1.0" encoding="UTF-8" standalone="no"?>
<!DOCTYPE svg PUBLIC "-//W3C//DTD SVG 1.1//EN" "http://www.w3.org/Graphics/SVG/1.1/DTD/svg11.dtd">
<svg xmlns="http://www.w3.org/2000/svg" version="1.1" viewBox="0.00 0.00 538.00 716.00">
<g stroke-width="2.00" fill="none" stroke-linecap="butt">
<path stroke="#858585" vector-effect="non-scaling-stroke" d="
  M 521.01 247.76
  A 0.26 0.26 0.0 0 0 520.75 247.50
  L 17.51 247.50
  A 0.26 0.26 0.0 0 0 17.25 247.76
  L 17.25 420.00
  A 0.26 0.26 0.0 0 0 17.51 420.26
  L 520.75 420.26
  A 0.26 0.26 0.0 0 0 521.01 420.00
  L 521.01 247.76"
/>
<path stroke="#87a0fa" vector-effect="non-scaling-stroke" d="
  M 487.75 687.70
  A 23.08 23.08 0.0 0 0 464.67 664.62
  A 23.08 23.08 0.0 0 0 441.59 687.70
  A 23.08 23.08 0.0 0 0 464.67 710.78
  A 23.08 23.08 0.0 0 0 487.75 687.70"
/>
<path stroke="#87a0fa" vector-effect="non-scaling-stroke" d="
  M 321.66 695.75
  C 321.79 701.63 325.29 704.99 331.32 703.08
  Q 331.75 702.94 331.68 702.50
  L 330.98 698.48
  Q 330.88 697.89 330.28 697.84
  Q 328.54 697.71 328.54 695.75
  Q 328.51 680.51 328.49 665.26
  Q 328.49 664.75 327.99 664.75
  L 322.03 664.75
  Q 321.56 664.75 321.56 665.22
  Q 321.33 680.50 321.66 695.75"
/>
<path stroke="#87a0fa" vector-effect="non-scaling-stroke" d="
  M 410.21 678.03
  C 403.71 672.43 395.75 677.01 393.65 684.36
  C 392.10 689.79 392.77 698.46 397.74 701.79
  Q 404.41 706.25 410.60 700.41
  A 0.64 0.63 -23.9 0 1 411.67 700.82
  L 411.80 702.43
  A 0.62 0.61 -2.0 0 0 412.42 703.00
  L 417.00 703.00
  Q 417.50 703.00 417.50 702.50
  L 417.50 665.25
  Q 417.50 664.75 417.00 664.75
  L 410.96 664.75
  Q 410.41 664.75 410.43 665.29
  L 410.78 677.76
  Q 410.81 678.54 410.21 678.03"
/>
<path stroke="#87a0fa" vector-effect="non-scaling-stroke" d="
  M 79.25 688.88
  A 0.38 0.38 0.0 0 1 79.63 688.50
  L 91.37 688.50
  A 0.38 0.38 0.0 0 0 91.75 688.12
  L 91.75 683.13
  A 0.38 0.38 0.0 0 0 91.37 682.75
  L 79.63 682.75
  A 0.38 0.38 0.0 0 1 79.25 682.37
  L 79.25 673.60
  A 0.38 0.38 0.0 0 1 79.63 673.22
  L 93.62 673.32
  A 0.38 0.38 0.0 0 0 94.00 672.94
  L 94.00 667.88
  A 0.38 0.38 0.0 0 0 93.62 667.50
  L 72.64 667.50
  A 0.38 0.38 0.0 0 0 72.26 667.88
  L 72.23 702.62
  A 0.38 0.38 0.0 0 0 72.61 703.00
  L 78.87 703.00
  A 0.38 0.38 0.0 0 0 79.25 702.62
  L 79.25 688.88"
/>
<path stroke="#87a0fa" vector-effect="non-scaling-stroke" d="
  M 185.98 667.81
  L 185.98 702.65
  A 0.30 0.30 0.0 0 0 186.28 702.95
  L 197.10 702.95
  A 15.88 15.71 0.0 0 0 212.98 687.24
  L 212.98 683.22
  A 15.88 15.71 -0.0 0 0 197.10 667.51
  L 186.28 667.51
  A 0.30 0.30 0.0 0 0 185.98 667.81"
/>
<path stroke="#87a0fa" vector-effect="non-scaling-stroke" d="
  M 104.31 680.03
  L 104.11 676.90
  Q 104.07 676.25 103.41 676.25
  L 98.75 676.25
  Q 98.25 676.25 98.25 676.75
  L 98.25 702.50
  Q 98.25 703.00 98.75 703.00
  L 104.74 703.00
  Q 105.26 703.00 105.26 702.48
  C 105.22 695.97 102.33 680.35 113.83 681.87
  Q 114.31 681.94 114.41 681.46
  L 115.39 676.66
  Q 115.50 676.12 114.97 675.95
  C 110.36 674.49 107.95 677.00 105.06 680.29
  A 0.43 0.43 0.0 0 1 104.31 680.03"
/>
<path stroke="#87a0fa" vector-effect="non-scaling-stroke" d="
  M 124.74 691.50
  L 140.03 691.50
  Q 140.59 691.50 140.65 690.94
  Q 141.05 687.04 139.97 683.26
  C 137.37 674.15 126.53 673.30 120.57 679.83
  C 115.17 685.75 116.33 698.22 123.98 702.07
  Q 131.63 705.91 139.21 700.69
  Q 139.65 700.39 139.39 699.93
  L 137.73 696.91
  A 0.58 0.57 61.1 0 0 136.96 696.68
  C 131.90 699.24 125.27 698.72 124.28 692.04
  Q 124.20 691.50 124.74 691.50"
/>
<path stroke="#87a0fa" vector-effect="non-scaling-stroke" d="
  M 152.27 691.50
  L 167.77 691.50
  A 0.69 0.68 2.2 0 0 168.46 690.87
  C 169.06 683.84 166.53 676.20 158.30 675.63
  C 144.52 674.68 140.18 694.70 151.16 701.54
  Q 158.39 706.05 167.03 700.80
  Q 167.48 700.52 167.23 700.05
  L 165.51 696.93
  A 0.59 0.59 0.0 0 0 164.73 696.68
  C 159.39 699.23 153.20 698.69 151.88 691.97
  Q 151.79 691.50 152.27 691.50"
/>
<path stroke="#87a0fa" vector-effect="non-scaling-stroke" d="
  M 230.6963 703.6298
  A 14.07 12.90 90.3 0 0 243.6698 689.6275
  A 14.07 12.90 90.3 0 0 230.8437 675.4902
  A 14.07 12.90 90.3 0 0 217.8702 689.4925
  A 14.07 12.90 90.3 0 0 230.6963 703.6298"
/>
<path stroke="#87a0fa" vector-effect="non-scaling-stroke" d="
  M 296.77 678.91
  L 296.74 676.74
  A 0.50 0.50 0.0 0 0 296.24 676.25
  L 291.25 676.25
  Q 290.75 676.25 290.75 676.75
  L 290.75 702.25
  Q 290.75 703.00 291.50 703.00
  L 297.25 703.00
  Q 297.75 703.00 297.75 702.50
  L 297.75 685.26
  A 1.28 1.24 65.9 0 1 298.05 684.44
  C 299.98 682.16 306.58 679.41 307.04 684.51
  Q 307.47 689.35 307.18 702.42
  A 0.57 0.56 -89.5 0 0 307.74 703.00
  L 313.73 703.00
  Q 314.14 703.00 314.16 702.59
  Q 314.50 694.21 314.05 685.82
  C 313.45 674.79 305.65 672.73 297.64 679.31
  A 0.53 0.53 0.0 0 1 296.77 678.91"
/>
<path stroke="#87a0fa" vector-effect="non-scaling-stroke" d="
  M 347.7209 703.6199
  A 14.06 12.89 90.2 0 0 360.6599 689.6050
  A 14.06 12.89 90.2 0 0 347.8191 675.5001
  A 14.06 12.89 90.2 0 0 334.8801 689.5150
  A 14.06 12.89 90.2 0 0 347.7209 703.6199"
/>
<path stroke="#87a0fa" vector-effect="non-scaling-stroke" d="
  M 381.05 700.60
  L 381.33 702.35
  A 0.78 0.78 0.0 0 0 382.10 703.00
  L 386.49 703.00
  Q 387.10 703.00 387.13 702.39
  C 387.48 696.31 388.91 679.11 381.69 676.47
  Q 373.90 673.63 366.21 679.11
  Q 365.88 679.35 366.08 679.70
  L 368.03 683.24
  Q 368.27 683.67 368.70 683.43
  C 372.47 681.30 378.97 679.01 380.11 685.18
  A 0.68 0.68 0.0 0 1 379.47 685.98
  C 373.18 686.30 362.30 689.32 365.23 698.28
  C 367.62 705.62 374.96 704.05 380.43 700.33
  Q 380.95 699.98 381.05 700.60"
/>
<path stroke="#87a0fa" vector-effect="non-scaling-stroke" d="
  M 266.34 684.26
  L 270.40 702.19
  Q 270.58 703.00 271.41 703.00
  L 278.47 703.00
  Q 278.91 703.00 279.01 702.58
  L 285.34 676.93
  Q 285.49 676.31 284.85 676.29
  L 279.42 676.15
  A 0.56 0.55 -83.0 0 0 278.87 676.59
  L 274.77 696.48
  A 0.19 0.18 -46.2 0 1 274.41 696.49
  L 269.68 676.73
  Q 269.56 676.25 269.07 676.25
  L 263.85 676.25
  Q 263.18 676.25 263.03 676.90
  L 258.45 696.46
  A 0.19 0.19 0.0 0 1 258.08 696.45
  L 254.07 676.84
  Q 253.95 676.25 253.35 676.25
  L 247.43 676.25
  Q 246.84 676.25 246.99 676.82
  L 253.67 702.56
  A 0.59 0.58 -6.9 0 0 254.24 703.00
  L 261.06 703.00
  Q 261.88 703.00 262.05 702.20
  L 265.98 684.26
  A 0.18 0.18 0.0 0 1 266.34 684.26"
/>
<path stroke="#858585" vector-effect="non-scaling-stroke" d="
  M 236.93 307.31
  A 5.98 5.98 0.0 0 0 230.95 301.33
  A 5.98 5.98 0.0 0 0 224.97 307.31
  A 5.98 5.98 0.0 0 0 230.95 313.29
  A 5.98 5.98 0.0 0 0 236.93 307.31"
/>
<path stroke="#858585" vector-effect="non-scaling-stroke" d="
  M 143.69 333.48
  C 149.44 340.14 161.38 342.08 166.73 346.04
  Q 175.25 352.36 171.91 362.27
  Q 169.86 368.38 163.57 369.45
  C 150.63 371.65 144.79 361.35 140.19 351.19
  Q 137.73 345.77 137.73 351.72
  Q 137.73 361.60 138.18 371.41
  A 1.46 1.45 58.4 0 0 140.90 372.06
  L 142.78 368.75
  A 1.09 1.09 0.0 0 1 144.31 368.36
  C 152.24 373.31 163.00 375.01 171.18 370.16
  C 178.41 365.88 182.01 357.15 180.60 349.05
  C 178.17 335.09 161.55 333.31 151.82 326.18
  C 143.78 320.30 146.02 305.12 157.53 305.47
  C 167.63 305.78 173.66 315.82 175.89 324.82
  A 1.27 1.27 0.0 0 0 178.40 324.48
  L 177.88 303.43
  Q 177.87 302.79 177.25 302.61
  C 174.68 301.87 173.63 304.38 172.60 306.11
  Q 172.10 306.93 171.27 306.46
  Q 160.66 300.45 150.43 304.28
  C 138.17 308.88 135.70 324.20 143.69 333.48"
/>
<path stroke="#858585" vector-effect="non-scaling-stroke" d="
  M 256.19 371.56
  Q 271.37 374.78 278.27 361.28
  A 1.08 1.07 45.9 0 0 278.28 360.33
  Q 277.47 358.69 276.62 360.29
  C 272.97 367.13 264.43 370.97 257.89 365.70
  C 252.50 361.36 251.28 352.16 251.78 345.41
  Q 251.81 344.98 252.24 344.98
  L 277.01 345.01
  Q 278.13 345.01 278.11 343.89
  C 278.01 337.42 275.51 329.52 269.10 326.87
  Q 259.06 322.72 251.43 328.25
  C 240.72 336.00 239.88 351.94 245.65 363.22
  C 247.78 367.39 251.82 370.64 256.19 371.56"
/>
<path stroke="#858585" vector-effect="non-scaling-stroke" d="
  M 294.43 331.98
  L 294.50 326.33
  Q 294.51 325.64 293.82 325.69
  L 279.05 326.79
  A 0.75 0.75 0.0 0 0 278.84 328.24
  Q 282.42 329.59 284.98 332.37
  Q 285.36 332.78 285.39 333.35
  Q 286.30 351.08 285.49 364.19
  C 285.21 368.70 281.83 367.31 279.35 369.10
  A 0.89 0.89 0.0 0 0 279.86 370.72
  Q 289.76 370.80 299.45 370.72
  Q 300.07 370.71 300.30 370.41
  Q 300.65 369.96 300.27 369.26
  A 0.98 0.96 78.9 0 0 299.54 368.76
  Q 294.09 368.09 294.04 362.26
  Q 293.95 349.40 294.02 336.96
  Q 294.03 335.43 295.03 334.28
  C 297.70 331.19 304.20 328.43 307.95 331.31
  C 313.52 335.59 311.50 357.65 311.48 364.51
  C 311.46 369.40 308.18 367.49 305.54 369.05
  A 0.90 0.90 0.0 0 0 305.99 370.72
  L 326.73 370.77
  A 0.58 0.58 0.0 0 0 327.23 369.89
  Q 326.88 369.30 325.93 369.09
  Q 320.32 367.90 320.44 362.01
  C 320.60 353.52 323.27 329.28 313.07 325.93
  C 305.21 323.34 300.72 326.68 295.31 332.34
  A 0.51 0.51 0.0 0 1 294.43 331.98"
/>
<path stroke="#858585" vector-effect="non-scaling-stroke" d="
  M 332.90 368.11
  C 343.02 375.81 353.44 371.63 360.11 362.13
  C 360.66 361.35 360.67 360.14 360.14 359.41
  Q 359.79 358.93 359.40 359.39
  C 355.04 364.53 352.58 368.64 344.75 367.49
  C 332.70 365.72 334.04 342.73 336.46 334.93
  C 337.83 330.54 340.27 327.73 344.92 327.54
  C 348.70 327.39 350.52 330.39 349.17 333.78
  C 345.29 343.51 360.78 344.78 358.58 334.68
  C 357.27 328.65 351.97 325.81 346.33 325.23
  C 335.67 324.13 327.48 333.24 325.81 343.26
  C 324.47 351.37 325.85 362.74 332.90 368.11"
/>
<path stroke="#858585" vector-effect="non-scaling-stroke" d="
  M 371.26 345.00
  L 396.49 345.00
  Q 396.94 345.00 396.94 344.54
  C 396.90 332.99 391.52 324.18 378.61 325.24
  C 372.78 325.72 368.22 329.64 364.98 334.35
  C 359.55 342.23 360.56 356.97 366.00 364.50
  C 373.97 375.54 390.85 374.07 396.70 361.49
  Q 397.14 360.55 396.98 359.75
  A 0.69 0.69 0.0 0 0 395.74 359.48
  C 391.60 365.17 389.70 368.76 381.65 367.70
  C 372.32 366.46 370.88 352.49 370.75 345.52
  Q 370.74 345.00 371.26 345.00"
/>
<path stroke="#858585" vector-effect="non-scaling-stroke" d="
  M 216.94 359.79
  C 214.40 367.26 202.64 371.86 197.45 364.43
  C 192.01 356.63 191.81 345.28 194.36 336.42
  C 196.12 330.32 199.84 326.43 206.46 328.30
  Q 206.95 328.44 207.16 328.90
  C 208.69 332.25 206.43 335.66 207.61 339.66
  Q 207.76 340.17 208.21 340.47
  Q 212.18 343.06 216.26 340.70
  A 1.18 1.17 -9.7 0 0 216.83 339.90
  C 220.09 323.58 199.69 321.84 191.00 330.29
  Q 182.02 339.01 183.72 353.25
  C 184.80 362.29 189.93 370.78 199.29 372.25
  C 209.16 373.81 212.85 368.58 218.93 362.44
  A 1.25 1.24 -26.0 0 0 219.28 361.44
  Q 219.11 359.83 217.57 359.44
  Q 217.10 359.32 216.94 359.79"
/>
<path stroke="#858585" vector-effect="non-scaling-stroke" d="
  M 220.46 328.73
  C 225.65 329.80 227.28 332.81 227.26 338.10
  Q 227.23 350.79 227.04 363.51
  Q 226.96 368.65 221.49 369.18
  Q 220.32 369.30 220.33 370.56
  A 0.70 0.70 0.0 0 0 221.03 371.25
  L 241.77 371.25
  A 0.70 0.70 0.0 0 0 242.47 370.62
  C 242.58 369.54 241.75 369.03 240.71 368.80
  Q 236.07 367.78 236.05 362.94
  Q 235.97 344.64 236.00 326.32
  Q 236.01 325.81 235.49 325.81
  Q 227.90 325.85 220.40 326.88
  Q 219.91 326.95 219.67 327.19
  Q 219.29 327.59 219.57 328.08
  A 1.37 1.36 -8.6 0 0 220.46 328.73"
/>
<path stroke="#858585" vector-effect="non-scaling-stroke" d="
  M 252.19 342.59
  L 268.49 342.85
  A 0.32 0.32 0.0 0 0 268.82 342.53
  L 268.83 341.83
  A 13.96 8.27 -89.1 0 0 260.78 327.74
  L 260.38 327.74
  A 13.96 8.27 -89.1 0 0 251.89 341.57
  L 251.88 342.27
  A 0.32 0.32 0.0 0 0 252.19 342.59"
/>
<path stroke="#858585" vector-effect="non-scaling-stroke" d="
  M 371.41 342.53
  L 387.61 342.73
  A 0.20 0.20 0.0 0 0 387.81 342.53
  L 387.82 341.94
  A 14.09 7.86 -89.3 0 0 380.13 327.76
  L 379.25 327.75
  A 14.09 7.86 -89.3 0 0 371.22 341.74
  L 371.21 342.33
  A 0.20 0.20 0.0 0 0 371.41 342.53"
/>
<path stroke="#87a0fa" vector-effect="non-scaling-stroke" d="
  M 451.58 690.22
  C 455.44 694.08 459.14 698.07 463.32 701.63
  A 2.20 2.19 42.9 0 0 466.26 701.53
  Q 472.01 695.95 477.88 690.04
  C 481.21 686.68 476.83 682.27 473.24 686.46
  Q 471.03 689.03 468.39 691.30
  A 0.36 0.36 0.0 0 1 467.80 691.03
  L 467.65 674.14
  A 0.94 0.93 -76.1 0 0 467.17 673.34
  Q 464.80 672.02 462.63 673.39
  A 1.11 1.09 77.7 0 0 462.11 674.21
  C 461.52 679.81 461.83 685.37 461.69 691.04
  Q 461.68 691.69 461.19 691.25
  Q 458.02 688.32 454.96 685.30
  C 452.71 683.08 448.05 686.68 451.58 690.22"
/>
<path stroke="#87a0fa" vector-effect="non-scaling-stroke" d="
  M 410.29 695.27
  L 410.49 684.07
  A 2.40 2.40 0.0 0 0 408.13 681.63
  L 405.72 681.59
  A 6.64 5.49 -89.0 0 0 400.11 688.13
  L 400.07 690.85
  A 6.64 5.49 -89.0 0 0 405.44 697.58
  L 407.85 697.63
  A 2.40 2.40 0.0 0 0 410.29 695.27"
/>
<path stroke="#87a0fa" vector-effect="non-scaling-stroke" d="
  M 193.04 673.60
  L 192.96 696.78
  A 0.49 0.49 0.0 0 0 193.45 697.27
  L 195.51 697.28
  A 10.21 10.00 0.2 0 0 205.75 687.31
  L 205.77 683.15
  A 10.21 10.00 0.2 0 0 195.59 673.12
  L 193.53 673.11
  A 0.49 0.49 0.0 0 0 193.04 673.60"
/>
<path stroke="#87a0fa" vector-effect="non-scaling-stroke" d="
  M 124.48 686.80
  L 134.60 686.70
  A 0.23 0.23 0.0 0 0 134.83 686.46
  L 134.83 686.32
  A 5.33 5.24 89.4 0 0 129.53 681.05
  L 129.43 681.05
  A 5.33 5.24 89.4 0 0 124.25 686.44
  L 124.25 686.58
  A 0.23 0.23 0.0 0 0 124.48 686.80"
/>
<path stroke="#87a0fa" vector-effect="non-scaling-stroke" d="
  M 152.22 686.80
  L 162.36 686.70
  A 0.23 0.23 0.0 0 0 162.59 686.46
  L 162.59 686.32
  A 5.33 5.24 89.4 0 0 157.29 681.05
  L 157.17 681.05
  A 5.33 5.24 89.4 0 0 151.99 686.44
  L 151.99 686.58
  A 0.23 0.23 0.0 0 0 152.22 686.80"
/>
<path stroke="#87a0fa" vector-effect="non-scaling-stroke" d="
  M 230.7990 697.8899
  A 8.32 5.67 89.8 0 0 236.4400 689.5502
  A 8.32 5.67 89.8 0 0 230.7410 681.2501
  A 8.32 5.67 89.8 0 0 225.1000 689.5898
  A 8.32 5.67 89.8 0 0 230.7990 697.8899"
/>
<path stroke="#87a0fa" vector-effect="non-scaling-stroke" d="
  M 347.7745 697.8900
  A 8.32 5.67 89.9 0 0 353.4300 689.5601
  A 8.32 5.67 89.9 0 0 347.7455 681.2500
  A 8.32 5.67 89.9 0 0 342.0900 689.5799
  A 8.32 5.67 89.9 0 0 347.7745 697.8900"
/>
<path stroke="#87a0fa" vector-effect="non-scaling-stroke" d="
  M 379.55 690.26
  C 366.39 691.64 372.50 702.26 379.08 696.42
  C 380.74 694.95 380.41 692.81 380.21 690.79
  Q 380.14 690.20 379.55 690.26"
/>
</g>
<path fill="#ffffff" d="
  M 0.00 0.00
  L 538.00 0.00
  L 538.00 716.00
  L 0.00 716.00
  L 0.00 0.00
  Z
  M 521.01 247.76
  A 0.26 0.26 0.0 0 0 520.75 247.50
  L 17.51 247.50
  A 0.26 0.26 0.0 0 0 17.25 247.76
  L 17.25 420.00
  A 0.26 0.26 0.0 0 0 17.51 420.26
  L 520.75 420.26
  A 0.26 0.26 0.0 0 0 521.01 420.00
  L 521.01 247.76
  Z
  M 487.75 687.70
  A 23.08 23.08 0.0 0 0 464.67 664.62
  A 23.08 23.08 0.0 0 0 441.59 687.70
  A 23.08 23.08 0.0 0 0 464.67 710.78
  A 23.08 23.08 0.0 0 0 487.75 687.70
  Z
  M 321.66 695.75
  C 321.79 701.63 325.29 704.99 331.32 703.08
  Q 331.75 702.94 331.68 702.50
  L 330.98 698.48
  Q 330.88 697.89 330.28 697.84
  Q 328.54 697.71 328.54 695.75
  Q 328.51 680.51 328.49 665.26
  Q 328.49 664.75 327.99 664.75
  L 322.03 664.75
  Q 321.56 664.75 321.56 665.22
  Q 321.33 680.50 321.66 695.75
  Z
  M 410.21 678.03
  C 403.71 672.43 395.75 677.01 393.65 684.36
  C 392.10 689.79 392.77 698.46 397.74 701.79
  Q 404.41 706.25 410.60 700.41
  A 0.64 0.63 -23.9 0 1 411.67 700.82
  L 411.80 702.43
  A 0.62 0.61 -2.0 0 0 412.42 703.00
  L 417.00 703.00
  Q 417.50 703.00 417.50 702.50
  L 417.50 665.25
  Q 417.50 664.75 417.00 664.75
  L 410.96 664.75
  Q 410.41 664.75 410.43 665.29
  L 410.78 677.76
  Q 410.81 678.54 410.21 678.03
  Z
  M 79.25 688.88
  A 0.38 0.38 0.0 0 1 79.63 688.50
  L 91.37 688.50
  A 0.38 0.38 0.0 0 0 91.75 688.12
  L 91.75 683.13
  A 0.38 0.38 0.0 0 0 91.37 682.75
  L 79.63 682.75
  A 0.38 0.38 0.0 0 1 79.25 682.37
  L 79.25 673.60
  A 0.38 0.38 0.0 0 1 79.63 673.22
  L 93.62 673.32
  A 0.38 0.38 0.0 0 0 94.00 672.94
  L 94.00 667.88
  A 0.38 0.38 0.0 0 0 93.62 667.50
  L 72.64 667.50
  A 0.38 0.38 0.0 0 0 72.26 667.88
  L 72.23 702.62
  A 0.38 0.38 0.0 0 0 72.61 703.00
  L 78.87 703.00
  A 0.38 0.38 0.0 0 0 79.25 702.62
  L 79.25 688.88
  Z
  M 185.98 667.81
  L 185.98 702.65
  A 0.30 0.30 0.0 0 0 186.28 702.95
  L 197.10 702.95
  A 15.88 15.71 0.0 0 0 212.98 687.24
  L 212.98 683.22
  A 15.88 15.71 -0.0 0 0 197.10 667.51
  L 186.28 667.51
  A 0.30 0.30 0.0 0 0 185.98 667.81
  Z
  M 104.31 680.03
  L 104.11 676.90
  Q 104.07 676.25 103.41 676.25
  L 98.75 676.25
  Q 98.25 676.25 98.25 676.75
  L 98.25 702.50
  Q 98.25 703.00 98.75 703.00
  L 104.74 703.00
  Q 105.26 703.00 105.26 702.48
  C 105.22 695.97 102.33 680.35 113.83 681.87
  Q 114.31 681.94 114.41 681.46
  L 115.39 676.66
  Q 115.50 676.12 114.97 675.95
  C 110.36 674.49 107.95 677.00 105.06 680.29
  A 0.43 0.43 0.0 0 1 104.31 680.03
  Z
  M 124.74 691.50
  L 140.03 691.50
  Q 140.59 691.50 140.65 690.94
  Q 141.05 687.04 139.97 683.26
  C 137.37 674.15 126.53 673.30 120.57 679.83
  C 115.17 685.75 116.33 698.22 123.98 702.07
  Q 131.63 705.91 139.21 700.69
  Q 139.65 700.39 139.39 699.93
  L 137.73 696.91
  A 0.58 0.57 61.1 0 0 136.96 696.68
  C 131.90 699.24 125.27 698.72 124.28 692.04
  Q 124.20 691.50 124.74 691.50
  Z
  M 152.27 691.50
  L 167.77 691.50
  A 0.69 0.68 2.2 0 0 168.46 690.87
  C 169.06 683.84 166.53 676.20 158.30 675.63
  C 144.52 674.68 140.18 694.70 151.16 701.54
  Q 158.39 706.05 167.03 700.80
  Q 167.48 700.52 167.23 700.05
  L 165.51 696.93
  A 0.59 0.59 0.0 0 0 164.73 696.68
  C 159.39 699.23 153.20 698.69 151.88 691.97
  Q 151.79 691.50 152.27 691.50
  Z
  M 230.6963 703.6298
  A 14.07 12.90 90.3 0 0 243.6698 689.6275
  A 14.07 12.90 90.3 0 0 230.8437 675.4902
  A 14.07 12.90 90.3 0 0 217.8702 689.4925
  A 14.07 12.90 90.3 0 0 230.6963 703.6298
  Z
  M 296.77 678.91
  L 296.74 676.74
  A 0.50 0.50 0.0 0 0 296.24 676.25
  L 291.25 676.25
  Q 290.75 676.25 290.75 676.75
  L 290.75 702.25
  Q 290.75 703.00 291.50 703.00
  L 297.25 703.00
  Q 297.75 703.00 297.75 702.50
  L 297.75 685.26
  A 1.28 1.24 65.9 0 1 298.05 684.44
  C 299.98 682.16 306.58 679.41 307.04 684.51
  Q 307.47 689.35 307.18 702.42
  A 0.57 0.56 -89.5 0 0 307.74 703.00
  L 313.73 703.00
  Q 314.14 703.00 314.16 702.59
  Q 314.50 694.21 314.05 685.82
  C 313.45 674.79 305.65 672.73 297.64 679.31
  A 0.53 0.53 0.0 0 1 296.77 678.91
  Z
  M 347.7209 703.6199
  A 14.06 12.89 90.2 0 0 360.6599 689.6050
  A 14.06 12.89 90.2 0 0 347.8191 675.5001
  A 14.06 12.89 90.2 0 0 334.8801 689.5150
  A 14.06 12.89 90.2 0 0 347.7209 703.6199
  Z
  M 381.05 700.60
  L 381.33 702.35
  A 0.78 0.78 0.0 0 0 382.10 703.00
  L 386.49 703.00
  Q 387.10 703.00 387.13 702.39
  C 387.48 696.31 388.91 679.11 381.69 676.47
  Q 373.90 673.63 366.21 679.11
  Q 365.88 679.35 366.08 679.70
  L 368.03 683.24
  Q 368.27 683.67 368.70 683.43
  C 372.47 681.30 378.97 679.01 380.11 685.18
  A 0.68 0.68 0.0 0 1 379.47 685.98
  C 373.18 686.30 362.30 689.32 365.23 698.28
  C 367.62 705.62 374.96 704.05 380.43 700.33
  Q 380.95 699.98 381.05 700.60
  Z
  M 266.34 684.26
  L 270.40 702.19
  Q 270.58 703.00 271.41 703.00
  L 278.47 703.00
  Q 278.91 703.00 279.01 702.58
  L 285.34 676.93
  Q 285.49 676.31 284.85 676.29
  L 279.42 676.15
  A 0.56 0.55 -83.0 0 0 278.87 676.59
  L 274.77 696.48
  A 0.19 0.18 -46.2 0 1 274.41 696.49
  L 269.68 676.73
  Q 269.56 676.25 269.07 676.25
  L 263.85 676.25
  Q 263.18 676.25 263.03 676.90
  L 258.45 696.46
  A 0.19 0.19 0.0 0 1 258.08 696.45
  L 254.07 676.84
  Q 253.95 676.25 253.35 676.25
  L 247.43 676.25
  Q 246.84 676.25 246.99 676.82
  L 253.67 702.56
  A 0.59 0.58 -6.9 0 0 254.24 703.00
  L 261.06 703.00
  Q 261.88 703.00 262.05 702.20
  L 265.98 684.26
  A 0.18 0.18 0.0 0 1 266.34 684.26
  Z"
/>
<path fill="#0b0b0b" d="
  M 521.01 420.00
  A 0.26 0.26 0.0 0 1 520.75 420.26
  L 17.51 420.26
  A 0.26 0.26 0.0 0 1 17.25 420.00
  L 17.25 247.76
  A 0.26 0.26 0.0 0 1 17.51 247.50
  L 520.75 247.50
  A 0.26 0.26 0.0 0 1 521.01 247.76
  L 521.01 420.00
  Z
  M 236.93 307.31
  A 5.98 5.98 0.0 0 0 230.95 301.33
  A 5.98 5.98 0.0 0 0 224.97 307.31
  A 5.98 5.98 0.0 0 0 230.95 313.29
  A 5.98 5.98 0.0 0 0 236.93 307.31
  Z
  M 143.69 333.48
  C 149.44 340.14 161.38 342.08 166.73 346.04
  Q 175.25 352.36 171.91 362.27
  Q 169.86 368.38 163.57 369.45
  C 150.63 371.65 144.79 361.35 140.19 351.19
  Q 137.73 345.77 137.73 351.72
  Q 137.73 361.60 138.18 371.41
  A 1.46 1.45 58.4 0 0 140.90 372.06
  L 142.78 368.75
  A 1.09 1.09 0.0 0 1 144.31 368.36
  C 152.24 373.31 163.00 375.01 171.18 370.16
  C 178.41 365.88 182.01 357.15 180.60 349.05
  C 178.17 335.09 161.55 333.31 151.82 326.18
  C 143.78 320.30 146.02 305.12 157.53 305.47
  C 167.63 305.78 173.66 315.82 175.89 324.82
  A 1.27 1.27 0.0 0 0 178.40 324.48
  L 177.88 303.43
  Q 177.87 302.79 177.25 302.61
  C 174.68 301.87 173.63 304.38 172.60 306.11
  Q 172.10 306.93 171.27 306.46
  Q 160.66 300.45 150.43 304.28
  C 138.17 308.88 135.70 324.20 143.69 333.48
  Z
  M 256.19 371.56
  Q 271.37 374.78 278.27 361.28
  A 1.08 1.07 45.9 0 0 278.28 360.33
  Q 277.47 358.69 276.62 360.29
  C 272.97 367.13 264.43 370.97 257.89 365.70
  C 252.50 361.36 251.28 352.16 251.78 345.41
  Q 251.81 344.98 252.24 344.98
  L 277.01 345.01
  Q 278.13 345.01 278.11 343.89
  C 278.01 337.42 275.51 329.52 269.10 326.87
  Q 259.06 322.72 251.43 328.25
  C 240.72 336.00 239.88 351.94 245.65 363.22
  C 247.78 367.39 251.82 370.64 256.19 371.56
  Z
  M 294.43 331.98
  L 294.50 326.33
  Q 294.51 325.64 293.82 325.69
  L 279.05 326.79
  A 0.75 0.75 0.0 0 0 278.84 328.24
  Q 282.42 329.59 284.98 332.37
  Q 285.36 332.78 285.39 333.35
  Q 286.30 351.08 285.49 364.19
  C 285.21 368.70 281.83 367.31 279.35 369.10
  A 0.89 0.89 0.0 0 0 279.86 370.72
  Q 289.76 370.80 299.45 370.72
  Q 300.07 370.71 300.30 370.41
  Q 300.65 369.96 300.27 369.26
  A 0.98 0.96 78.9 0 0 299.54 368.76
  Q 294.09 368.09 294.04 362.26
  Q 293.95 349.40 294.02 336.96
  Q 294.03 335.43 295.03 334.28
  C 297.70 331.19 304.20 328.43 307.95 331.31
  C 313.52 335.59 311.50 357.65 311.48 364.51
  C 311.46 369.40 308.18 367.49 305.54 369.05
  A 0.90 0.90 0.0 0 0 305.99 370.72
  L 326.73 370.77
  A 0.58 0.58 0.0 0 0 327.23 369.89
  Q 326.88 369.30 325.93 369.09
  Q 320.32 367.90 320.44 362.01
  C 320.60 353.52 323.27 329.28 313.07 325.93
  C 305.21 323.34 300.72 326.68 295.31 332.34
  A 0.51 0.51 0.0 0 1 294.43 331.98
  Z
  M 332.90 368.11
  C 343.02 375.81 353.44 371.63 360.11 362.13
  C 360.66 361.35 360.67 360.14 360.14 359.41
  Q 359.79 358.93 359.40 359.39
  C 355.04 364.53 352.58 368.64 344.75 367.49
  C 332.70 365.72 334.04 342.73 336.46 334.93
  C 337.83 330.54 340.27 327.73 344.92 327.54
  C 348.70 327.39 350.52 330.39 349.17 333.78
  C 345.29 343.51 360.78 344.78 358.58 334.68
  C 357.27 328.65 351.97 325.81 346.33 325.23
  C 335.67 324.13 327.48 333.24 325.81 343.26
  C 324.47 351.37 325.85 362.74 332.90 368.11
  Z
  M 371.26 345.00
  L 396.49 345.00
  Q 396.94 345.00 396.94 344.54
  C 396.90 332.99 391.52 324.18 378.61 325.24
  C 372.78 325.72 368.22 329.64 364.98 334.35
  C 359.55 342.23 360.56 356.97 366.00 364.50
  C 373.97 375.54 390.85 374.07 396.70 361.49
  Q 397.14 360.55 396.98 359.75
  A 0.69 0.69 0.0 0 0 395.74 359.48
  C 391.60 365.17 389.70 368.76 381.65 367.70
  C 372.32 366.46 370.88 352.49 370.75 345.52
  Q 370.74 345.00 371.26 345.00
  Z
  M 216.94 359.79
  C 214.40 367.26 202.64 371.86 197.45 364.43
  C 192.01 356.63 191.81 345.28 194.36 336.42
  C 196.12 330.32 199.84 326.43 206.46 328.30
  Q 206.95 328.44 207.16 328.90
  C 208.69 332.25 206.43 335.66 207.61 339.66
  Q 207.76 340.17 208.21 340.47
  Q 212.18 343.06 216.26 340.70
  A 1.18 1.17 -9.7 0 0 216.83 339.90
  C 220.09 323.58 199.69 321.84 191.00 330.29
  Q 182.02 339.01 183.72 353.25
  C 184.80 362.29 189.93 370.78 199.29 372.25
  C 209.16 373.81 212.85 368.58 218.93 362.44
  A 1.25 1.24 -26.0 0 0 219.28 361.44
  Q 219.11 359.83 217.57 359.44
  Q 217.10 359.32 216.94 359.79
  Z
  M 220.46 328.73
  C 225.65 329.80 227.28 332.81 227.26 338.10
  Q 227.23 350.79 227.04 363.51
  Q 226.96 368.65 221.49 369.18
  Q 220.32 369.30 220.33 370.56
  A 0.70 0.70 0.0 0 0 221.03 371.25
  L 241.77 371.25
  A 0.70 0.70 0.0 0 0 242.47 370.62
  C 242.58 369.54 241.75 369.03 240.71 368.80
  Q 236.07 367.78 236.05 362.94
  Q 235.97 344.64 236.00 326.32
  Q 236.01 325.81 235.49 325.81
  Q 227.90 325.85 220.40 326.88
  Q 219.91 326.95 219.67 327.19
  Q 219.29 327.59 219.57 328.08
  A 1.37 1.36 -8.6 0 0 220.46 328.73
  Z"
/>
<circle fill="#ffffff" cx="230.95" cy="307.31" r="5.98"/>
<path fill="#ffffff" d="
  M 143.69 333.48
  C 135.70 324.20 138.17 308.88 150.43 304.28
  Q 160.66 300.45 171.27 306.46
  Q 172.10 306.93 172.60 306.11
  C 173.63 304.38 174.68 301.87 177.25 302.61
  Q 177.87 302.79 177.88 303.43
  L 178.40 324.48
  A 1.27 1.27 0.0 0 1 175.89 324.82
  C 173.66 315.82 167.63 305.78 157.53 305.47
  C 146.02 305.12 143.78 320.30 151.82 326.18
  C 161.55 333.31 178.17 335.09 180.60 349.05
  C 182.01 357.15 178.41 365.88 171.18 370.16
  C 163.00 375.01 152.24 373.31 144.31 368.36
  A 1.09 1.09 0.0 0 0 142.78 368.75
  L 140.90 372.06
  A 1.46 1.45 58.4 0 1 138.18 371.41
  Q 137.73 361.60 137.73 351.72
  Q 137.73 345.77 140.19 351.19
  C 144.79 361.35 150.63 371.65 163.57 369.45
  Q 169.86 368.38 171.91 362.27
  Q 175.25 352.36 166.73 346.04
  C 161.38 342.08 149.44 340.14 143.69 333.48
  Z"
/>
<path fill="#ffffff" d="
  M 256.19 371.56
  C 251.82 370.64 247.78 367.39 245.65 363.22
  C 239.88 351.94 240.72 336.00 251.43 328.25
  Q 259.06 322.72 269.10 326.87
  C 275.51 329.52 278.01 337.42 278.11 343.89
  Q 278.13 345.01 277.01 345.01
  L 252.24 344.98
  Q 251.81 344.98 251.78 345.41
  C 251.28 352.16 252.50 361.36 257.89 365.70
  C 264.43 370.97 272.97 367.13 276.62 360.29
  Q 277.47 358.69 278.28 360.33
  A 1.08 1.07 45.9 0 1 278.27 361.28
  Q 271.37 374.78 256.19 371.56
  Z
  M 252.19 342.59
  L 268.49 342.85
  A 0.32 0.32 0.0 0 0 268.82 342.53
  L 268.83 341.83
  A 13.96 8.27 -89.1 0 0 260.78 327.74
  L 260.38 327.74
  A 13.96 8.27 -89.1 0 0 251.89 341.57
  L 251.88 342.27
  A 0.32 0.32 0.0 0 0 252.19 342.59
  Z"
/>
<path fill="#ffffff" d="
  M 295.31 332.34
  C 300.72 326.68 305.21 323.34 313.07 325.93
  C 323.27 329.28 320.60 353.52 320.44 362.01
  Q 320.32 367.90 325.93 369.09
  Q 326.88 369.30 327.23 369.89
  A 0.58 0.58 0.0 0 1 326.73 370.77
  L 305.99 370.72
  A 0.90 0.90 0.0 0 1 305.54 369.05
  C 308.18 367.49 311.46 369.40 311.48 364.51
  C 311.50 357.65 313.52 335.59 307.95 331.31
  C 304.20 328.43 297.70 331.19 295.03 334.28
  Q 294.03 335.43 294.02 336.96
  Q 293.95 349.40 294.04 362.26
  Q 294.09 368.09 299.54 368.76
  A 0.98 0.96 78.9 0 1 300.27 369.26
  Q 300.65 369.96 300.30 370.41
  Q 300.07 370.71 299.45 370.72
  Q 289.76 370.80 279.86 370.72
  A 0.89 0.89 0.0 0 1 279.35 369.10
  C 281.83 367.31 285.21 368.70 285.49 364.19
  Q 286.30 351.08 285.39 333.35
  Q 285.36 332.78 284.98 332.37
  Q 282.42 329.59 278.84 328.24
  A 0.75 0.75 0.0 0 1 279.05 326.79
  L 293.82 325.69
  Q 294.51 325.64 294.50 326.33
  L 294.43 331.98
  A 0.51 0.51 0.0 0 0 295.31 332.34
  Z"
/>
<path fill="#ffffff" d="
  M 332.90 368.11
  C 325.85 362.74 324.47 351.37 325.81 343.26
  C 327.48 333.24 335.67 324.13 346.33 325.23
  C 351.97 325.81 357.27 328.65 358.58 334.68
  C 360.78 344.78 345.29 343.51 349.17 333.78
  C 350.52 330.39 348.70 327.39 344.92 327.54
  C 340.27 327.73 337.83 330.54 336.46 334.93
  C 334.04 342.73 332.70 365.72 344.75 367.49
  C 352.58 368.64 355.04 364.53 359.40 359.39
  Q 359.79 358.93 360.14 359.41
  C 360.67 360.14 360.66 361.35 360.11 362.13
  C 353.44 371.63 343.02 375.81 332.90 368.11
  Z"
/>
<path fill="#ffffff" d="
  M 370.75 345.52
  C 370.88 352.49 372.32 366.46 381.65 367.70
  C 389.70 368.76 391.60 365.17 395.74 359.48
  A 0.69 0.69 0.0 0 1 396.98 359.75
  Q 397.14 360.55 396.70 361.49
  C 390.85 374.07 373.97 375.54 366.00 364.50
  C 360.56 356.97 359.55 342.23 364.98 334.35
  C 368.22 329.64 372.78 325.72 378.61 325.24
  C 391.52 324.18 396.90 332.99 396.94 344.54
  Q 396.94 345.00 396.49 345.00
  L 371.26 345.00
  Q 370.74 345.00 370.75 345.52
  Z
  M 371.41 342.53
  L 387.61 342.73
  A 0.20 0.20 0.0 0 0 387.81 342.53
  L 387.82 341.94
  A 14.09 7.86 -89.3 0 0 380.13 327.76
  L 379.25 327.75
  A 14.09 7.86 -89.3 0 0 371.22 341.74
  L 371.21 342.33
  A 0.20 0.20 0.0 0 0 371.41 342.53
  Z"
/>
<path fill="#ffffff" d="
  M 197.45 364.43
  C 202.64 371.86 214.40 367.26 216.94 359.79
  Q 217.10 359.32 217.57 359.44
  Q 219.11 359.83 219.28 361.44
  A 1.25 1.24 -26.0 0 1 218.93 362.44
  C 212.85 368.58 209.16 373.81 199.29 372.25
  C 189.93 370.78 184.80 362.29 183.72 353.25
  Q 182.02 339.01 191.00 330.29
  C 199.69 321.84 220.09 323.58 216.83 339.90
  A 1.18 1.17 -9.7 0 1 216.26 340.70
  Q 212.18 343.06 208.21 340.47
  Q 207.76 340.17 207.61 339.66
  C 206.43 335.66 208.69 332.25 207.16 328.90
  Q 206.95 328.44 206.46 328.30
  C 199.84 326.43 196.12 330.32 194.36 336.42
  C 191.81 345.28 192.01 356.63 197.45 364.43
  Z"
/>
<path fill="#ffffff" d="
  M 220.46 328.73
  A 1.37 1.36 -8.6 0 1 219.57 328.08
  Q 219.29 327.59 219.67 327.19
  Q 219.91 326.95 220.40 326.88
  Q 227.90 325.85 235.49 325.81
  Q 236.01 325.81 236.00 326.32
  Q 235.97 344.64 236.05 362.94
  Q 236.07 367.78 240.71 368.80
  C 241.75 369.03 242.58 369.54 242.47 370.62
  A 0.70 0.70 0.0 0 1 241.77 371.25
  L 221.03 371.25
  A 0.70 0.70 0.0 0 1 220.33 370.56
  Q 220.32 369.30 221.49 369.18
  Q 226.96 368.65 227.04 363.51
  Q 227.23 350.79 227.26 338.10
  C 227.28 332.81 225.65 329.80 220.46 328.73
  Z"
/>
<path fill="#0b0b0b" d="
  M 252.19 342.59
  A 0.32 0.32 0.0 0 1 251.88 342.27
  L 251.89 341.57
  A 13.96 8.27 -89.1 0 1 260.38 327.74
  L 260.78 327.74
  A 13.96 8.27 -89.1 0 1 268.83 341.83
  L 268.82 342.53
  A 0.32 0.32 0.0 0 1 268.49 342.85
  L 252.19 342.59
  Z"
/>
<path fill="#0b0b0b" d="
  M 371.41 342.53
  A 0.20 0.20 0.0 0 1 371.21 342.33
  L 371.22 341.74
  A 14.09 7.86 -89.3 0 1 379.25 327.75
  L 380.13 327.76
  A 14.09 7.86 -89.3 0 1 387.82 341.94
  L 387.81 342.53
  A 0.20 0.20 0.0 0 1 387.61 342.73
  L 371.41 342.53
  Z"
/>
<path fill="#0f40f5" d="
  M 487.75 687.70
  A 23.08 23.08 0.0 0 1 464.67 710.78
  A 23.08 23.08 0.0 0 1 441.59 687.70
  A 23.08 23.08 0.0 0 1 464.67 664.62
  A 23.08 23.08 0.0 0 1 487.75 687.70
  Z
  M 451.58 690.22
  C 455.44 694.08 459.14 698.07 463.32 701.63
  A 2.20 2.19 42.9 0 0 466.26 701.53
  Q 472.01 695.95 477.88 690.04
  C 481.21 686.68 476.83 682.27 473.24 686.46
  Q 471.03 689.03 468.39 691.30
  A 0.36 0.36 0.0 0 1 467.80 691.03
  L 467.65 674.14
  A 0.94 0.93 -76.1 0 0 467.17 673.34
  Q 464.80 672.02 462.63 673.39
  A 1.11 1.09 77.7 0 0 462.11 674.21
  C 461.52 679.81 461.83 685.37 461.69 691.04
  Q 461.68 691.69 461.19 691.25
  Q 458.02 688.32 454.96 685.30
  C 452.71 683.08 448.05 686.68 451.58 690.22
  Z"
/>
<path fill="#0f40f5" d="
  M 331.32 703.08
  C 325.29 704.99 321.79 701.63 321.66 695.75
  Q 321.33 680.50 321.56 665.22
  Q 321.56 664.75 322.03 664.75
  L 327.99 664.75
  Q 328.49 664.75 328.49 665.26
  Q 328.51 680.51 328.54 695.75
  Q 328.54 697.71 330.28 697.84
  Q 330.88 697.89 330.98 698.48
  L 331.68 702.50
  Q 331.75 702.94 331.32 703.08
  Z"
/>
<path fill="#0f40f5" d="
  M 410.78 677.76
  L 410.43 665.29
  Q 410.41 664.75 410.96 664.75
  L 417.00 664.75
  Q 417.50 664.75 417.50 665.25
  L 417.50 702.50
  Q 417.50 703.00 417.00 703.00
  L 412.42 703.00
  A 0.62 0.61 -2.0 0 1 411.80 702.43
  L 411.67 700.82
  A 0.64 0.63 -23.9 0 0 410.60 700.41
  Q 404.41 706.25 397.74 701.79
  C 392.77 698.46 392.10 689.79 393.65 684.36
  C 395.75 677.01 403.71 672.43 410.21 678.03
  Q 410.81 678.54 410.78 677.76
  Z
  M 410.29 695.27
  L 410.49 684.07
  A 2.40 2.40 0.0 0 0 408.13 681.63
  L 405.72 681.59
  A 6.64 5.49 -89.0 0 0 400.11 688.13
  L 400.07 690.85
  A 6.64 5.49 -89.0 0 0 405.44 697.58
  L 407.85 697.63
  A 2.40 2.40 0.0 0 0 410.29 695.27
  Z"
/>
<path fill="#0f40f5" d="
  M 79.25 688.88
  L 79.25 702.62
  A 0.38 0.38 0.0 0 1 78.87 703.00
  L 72.61 703.00
  A 0.38 0.38 0.0 0 1 72.23 702.62
  L 72.26 667.88
  A 0.38 0.38 0.0 0 1 72.64 667.50
  L 93.62 667.50
  A 0.38 0.38 0.0 0 1 94.00 667.88
  L 94.00 672.94
  A 0.38 0.38 0.0 0 1 93.62 673.32
  L 79.63 673.22
  A 0.38 0.38 0.0 0 0 79.25 673.60
  L 79.25 682.37
  A 0.38 0.38 0.0 0 0 79.63 682.75
  L 91.37 682.75
  A 0.38 0.38 0.0 0 1 91.75 683.13
  L 91.75 688.12
  A 0.38 0.38 0.0 0 1 91.37 688.50
  L 79.63 688.50
  A 0.38 0.38 0.0 0 0 79.25 688.88
  Z"
/>
<path fill="#0f40f5" d="
  M 185.98 667.81
  A 0.30 0.30 0.0 0 1 186.28 667.51
  L 197.10 667.51
  A 15.88 15.71 0.0 0 1 212.98 683.22
  L 212.98 687.24
  A 15.88 15.71 -0.0 0 1 197.10 702.95
  L 186.28 702.95
  A 0.30 0.30 0.0 0 1 185.98 702.65
  L 185.98 667.81
  Z
  M 193.04 673.60
  L 192.96 696.78
  A 0.49 0.49 0.0 0 0 193.45 697.27
  L 195.51 697.28
  A 10.21 10.00 0.2 0 0 205.75 687.31
  L 205.77 683.15
  A 10.21 10.00 0.2 0 0 195.59 673.12
  L 193.53 673.11
  A 0.49 0.49 0.0 0 0 193.04 673.60
  Z"
/>
<path fill="#ffffff" d="
  M 463.32 701.63
  C 459.14 698.07 455.44 694.08 451.58 690.22
  C 448.05 686.68 452.71 683.08 454.96 685.30
  Q 458.02 688.32 461.19 691.25
  Q 461.68 691.69 461.69 691.04
  C 461.83 685.37 461.52 679.81 462.11 674.21
  A 1.11 1.09 77.7 0 1 462.63 673.39
  Q 464.80 672.02 467.17 673.34
  A 0.94 0.93 -76.1 0 1 467.65 674.14
  L 467.80 691.03
  A 0.36 0.36 0.0 0 0 468.39 691.30
  Q 471.03 689.03 473.24 686.46
  C 476.83 682.27 481.21 686.68 477.88 690.04
  Q 472.01 695.95 466.26 701.53
  A 2.20 2.19 42.9 0 1 463.32 701.63
  Z"
/>
<path fill="#ffffff" d="
  M 193.04 673.60
  A 0.49 0.49 0.0 0 1 193.53 673.11
  L 195.59 673.12
  A 10.21 10.00 0.2 0 1 205.77 683.15
  L 205.75 687.31
  A 10.21 10.00 0.2 0 1 195.51 697.28
  L 193.45 697.27
  A 0.49 0.49 0.0 0 1 192.96 696.78
  L 193.04 673.60
  Z"
/>
<path fill="#0f40f5" d="
  M 105.06 680.29
  C 107.95 677.00 110.36 674.49 114.97 675.95
  Q 115.50 676.12 115.39 676.66
  L 114.41 681.46
  Q 114.31 681.94 113.83 681.87
  C 102.33 680.35 105.22 695.97 105.26 702.48
  Q 105.26 703.00 104.74 703.00
  L 98.75 703.00
  Q 98.25 703.00 98.25 702.50
  L 98.25 676.75
  Q 98.25 676.25 98.75 676.25
  L 103.41 676.25
  Q 104.07 676.25 104.11 676.90
  L 104.31 680.03
  A 0.43 0.43 0.0 0 0 105.06 680.29
  Z"
/>
<path fill="#0f40f5" d="
  M 124.28 692.04
  C 125.27 698.72 131.90 699.24 136.96 696.68
  A 0.58 0.57 61.1 0 1 137.73 696.91
  L 139.39 699.93
  Q 139.65 700.39 139.21 700.69
  Q 131.63 705.91 123.98 702.07
  C 116.33 698.22 115.17 685.75 120.57 679.83
  C 126.53 673.30 137.37 674.15 139.97 683.26
  Q 141.05 687.04 140.65 690.94
  Q 140.59 691.50 140.03 691.50
  L 124.74 691.50
  Q 124.20 691.50 124.28 692.04
  Z
  M 124.48 686.80
  L 134.60 686.70
  A 0.23 0.23 0.0 0 0 134.83 686.46
  L 134.83 686.32
  A 5.33 5.24 89.4 0 0 129.53 681.05
  L 129.43 681.05
  A 5.33 5.24 89.4 0 0 124.25 686.44
  L 124.25 686.58
  A 0.23 0.23 0.0 0 0 124.48 686.80
  Z"
/>
<path fill="#0f40f5" d="
  M 151.88 691.97
  C 153.20 698.69 159.39 699.23 164.73 696.68
  A 0.59 0.59 0.0 0 1 165.51 696.93
  L 167.23 700.05
  Q 167.48 700.52 167.03 700.80
  Q 158.39 706.05 151.16 701.54
  C 140.18 694.70 144.52 674.68 158.30 675.63
  C 166.53 676.20 169.06 683.84 168.46 690.87
  A 0.69 0.68 2.2 0 1 167.77 691.50
  L 152.27 691.50
  Q 151.79 691.50 151.88 691.97
  Z
  M 152.22 686.80
  L 162.36 686.70
  A 0.23 0.23 0.0 0 0 162.59 686.46
  L 162.59 686.32
  A 5.33 5.24 89.4 0 0 157.29 681.05
  L 157.17 681.05
  A 5.33 5.24 89.4 0 0 151.99 686.44
  L 151.99 686.58
  A 0.23 0.23 0.0 0 0 152.22 686.80
  Z"
/>
<path fill="#0f40f5" d="
  M 230.6963 703.6298
  A 14.07 12.90 90.3 0 1 217.8702 689.4925
  A 14.07 12.90 90.3 0 1 230.8437 675.4902
  A 14.07 12.90 90.3 0 1 243.6698 689.6275
  A 14.07 12.90 90.3 0 1 230.6963 703.6298
  Z
  M 230.7990 697.8899
  A 8.32 5.67 89.8 0 0 236.4400 689.5502
  A 8.32 5.67 89.8 0 0 230.7410 681.2501
  A 8.32 5.67 89.8 0 0 225.1000 689.5898
  A 8.32 5.67 89.8 0 0 230.7990 697.8899
  Z"
/>
<path fill="#0f40f5" d="
  M 297.64 679.31
  C 305.65 672.73 313.45 674.79 314.05 685.82
  Q 314.50 694.21 314.16 702.59
  Q 314.14 703.00 313.73 703.00
  L 307.74 703.00
  A 0.57 0.56 -89.5 0 1 307.18 702.42
  Q 307.47 689.35 307.04 684.51
  C 306.58 679.41 299.98 682.16 298.05 684.44
  A 1.28 1.24 65.9 0 0 297.75 685.26
  L 297.75 702.50
  Q 297.75 703.00 297.25 703.00
  L 291.50 703.00
  Q 290.75 703.00 290.75 702.25
  L 290.75 676.75
  Q 290.75 676.25 291.25 676.25
  L 296.24 676.25
  A 0.50 0.50 0.0 0 1 296.74 676.74
  L 296.77 678.91
  A 0.53 0.53 0.0 0 0 297.64 679.31
  Z"
/>
<path fill="#0f40f5" d="
  M 347.7209 703.6199
  A 14.06 12.89 90.2 0 1 334.8801 689.5150
  A 14.06 12.89 90.2 0 1 347.8191 675.5001
  A 14.06 12.89 90.2 0 1 360.6599 689.6050
  A 14.06 12.89 90.2 0 1 347.7209 703.6199
  Z
  M 347.7745 697.8900
  A 8.32 5.67 89.9 0 0 353.4300 689.5601
  A 8.32 5.67 89.9 0 0 347.7455 681.2500
  A 8.32 5.67 89.9 0 0 342.0900 689.5799
  A 8.32 5.67 89.9 0 0 347.7745 697.8900
  Z"
/>
<path fill="#0f40f5" d="
  M 380.43 700.33
  C 374.96 704.05 367.62 705.62 365.23 698.28
  C 362.30 689.32 373.18 686.30 379.47 685.98
  A 0.68 0.68 0.0 0 0 380.11 685.18
  C 378.97 679.01 372.47 681.30 368.70 683.43
  Q 368.27 683.67 368.03 683.24
  L 366.08 679.70
  Q 365.88 679.35 366.21 679.11
  Q 373.90 673.63 381.69 676.47
  C 388.91 679.11 387.48 696.31 387.13 702.39
  Q 387.10 703.00 386.49 703.00
  L 382.10 703.00
  A 0.78 0.78 0.0 0 1 381.33 702.35
  L 381.05 700.60
  Q 380.95 699.98 380.43 700.33
  Z
  M 379.55 690.26
  C 366.39 691.64 372.50 702.26 379.08 696.42
  C 380.74 694.95 380.41 692.81 380.21 690.79
  Q 380.14 690.20 379.55 690.26
  Z"
/>
<path fill="#0f40f5" d="
  M 266.34 684.26
  A 0.18 0.18 0.0 0 0 265.98 684.26
  L 262.05 702.20
  Q 261.88 703.00 261.06 703.00
  L 254.24 703.00
  A 0.59 0.58 -6.9 0 1 253.67 702.56
  L 246.99 676.82
  Q 246.84 676.25 247.43 676.25
  L 253.35 676.25
  Q 253.95 676.25 254.07 676.84
  L 258.08 696.45
  A 0.19 0.19 0.0 0 0 258.45 696.46
  L 263.03 676.90
  Q 263.18 676.25 263.85 676.25
  L 269.07 676.25
  Q 269.56 676.25 269.68 676.73
  L 274.41 696.49
  A 0.19 0.18 -46.2 0 0 274.77 696.48
  L 278.87 676.59
  A 0.56 0.55 -83.0 0 1 279.42 676.15
  L 284.85 676.29
  Q 285.49 676.31 285.34 676.93
  L 279.01 702.58
  Q 278.91 703.00 278.47 703.00
  L 271.41 703.00
  Q 270.58 703.00 270.40 702.19
  L 266.34 684.26
  Z"
/>
<path fill="#ffffff" d="
  M 124.48 686.80
  A 0.23 0.23 0.0 0 1 124.25 686.58
  L 124.25 686.44
  A 5.33 5.24 89.4 0 1 129.43 681.05
  L 129.53 681.05
  A 5.33 5.24 89.4 0 1 134.83 686.32
  L 134.83 686.46
  A 0.23 0.23 0.0 0 1 134.60 686.70
  L 124.48 686.80
  Z"
/>
<path fill="#ffffff" d="
  M 152.22 686.80
  A 0.23 0.23 0.0 0 1 151.99 686.58
  L 151.99 686.44
  A 5.33 5.24 89.4 0 1 157.17 681.05
  L 157.29 681.05
  A 5.33 5.24 89.4 0 1 162.59 686.32
  L 162.59 686.46
  A 0.23 0.23 0.0 0 1 162.36 686.70
  L 152.22 686.80
  Z"
/>
<ellipse fill="#ffffff" cx="0.00" cy="0.00" transform="translate(230.77,689.57) rotate(89.8)" rx="8.32" ry="5.67"/>
<ellipse fill="#ffffff" cx="0.00" cy="0.00" transform="translate(347.76,689.57) rotate(89.9)" rx="8.32" ry="5.67"/>
<path fill="#ffffff" d="
  M 410.29 695.27
  A 2.40 2.40 0.0 0 1 407.85 697.63
  L 405.44 697.58
  A 6.64 5.49 -89.0 0 1 400.07 690.85
  L 400.11 688.13
  A 6.64 5.49 -89.0 0 1 405.72 681.59
  L 408.13 681.63
  A 2.40 2.40 0.0 0 1 410.49 684.07
  L 410.29 695.27
  Z"
/>
<path fill="#ffffff" d="
  M 379.08 696.42
  C 372.50 702.26 366.39 691.64 379.55 690.26
  Q 380.14 690.20 380.21 690.79
  C 380.41 692.81 380.74 694.95 379.08 696.42
  Z"
/>
</svg>
